<?xml version="1.0" standalone="no"?>
<!DOCTYPE svg PUBLIC "-//W3C//DTD SVG 20010904//EN"
 "http://www.w3.org/TR/2001/REC-SVG-20010904/DTD/svg10.dtd">
<svg version="1.0" xmlns="http://www.w3.org/2000/svg"
 width="322.000000pt" height="184.000000pt" viewBox="0 0 322.000000 184.000000"
 preserveAspectRatio="xMidYMid meet">

<g transform="translate(0.000000,184.000000) scale(0.100000,-0.100000)"
fill="#000000" stroke="none">
<path d="M1836 1627 c-17 -13 -18 -40 -17 -470 0 -302 -3 -458 -10 -462 -5 -4
-27 1 -47 12 -54 27 -162 23 -227 -7 -133 -63 -206 -200 -175 -329 9 -40 22
-59 57 -91 136 -120 365 -57 453 125 19 39 20 61 20 468 0 478 -4 453 71 423
59 -24 123 -81 156 -140 24 -44 28 -61 28 -131 -1 -65 -6 -91 -28 -139 -30
-64 -33 -86 -14 -86 16 0 74 140 85 207 10 56 0 152 -20 193 -22 45 -81 124
-142 187 -80 85 -122 146 -131 191 -7 36 -21 62 -34 62 -4 0 -15 -6 -25 -13z"/>
</g>
</svg>
