<?xml version="1.0" standalone="no"?>
<!DOCTYPE svg PUBLIC "-//W3C//DTD SVG 20010904//EN"
 "http://www.w3.org/TR/2001/REC-SVG-20010904/DTD/svg10.dtd">
<svg version="1.0" xmlns="http://www.w3.org/2000/svg"
 width="1508.000000pt" height="1760.000000pt" viewBox="0 0 1508.000000 1760.000000"
 preserveAspectRatio="xMidYMid meet">

<g transform="translate(0.000000,1760.000000) scale(0.100000,-0.100000)"
fill="#000000" stroke="none">
<path d="M9672 17540 c-6 -11 -12 -29 -12 -40 0 -11 -4 -20 -10 -20 -5 0 -10
-13 -10 -30 0 -16 -4 -30 -10 -30 -5 0 -10 -13 -10 -29 0 -17 -4 -33 -10 -36
-5 -3 -10 -19 -10 -35 0 -16 -4 -32 -10 -35 -5 -3 -10 -19 -10 -36 0 -16 -4
-29 -10 -29 -5 0 -10 -13 -10 -29 0 -17 -4 -33 -10 -36 -5 -3 -10 -17 -10 -30
0 -13 -4 -27 -10 -30 -5 -3 -10 -19 -10 -35 0 -16 -4 -32 -10 -35 -5 -3 -10
-19 -10 -35 0 -16 -4 -32 -10 -35 -5 -3 -10 -22 -10 -41 0 -19 -4 -34 -10 -34
-5 0 -10 -15 -10 -34 0 -19 -4 -38 -10 -41 -5 -3 -10 -24 -10 -46 0 -21 -4
-39 -10 -39 -5 0 -10 -22 -10 -49 0 -28 -4 -53 -10 -56 -5 -3 -10 -24 -10 -45
0 -21 -4 -42 -10 -45 -5 -3 -10 -28 -10 -56 0 -27 -4 -49 -9 -49 -5 0 -12 -19
-15 -42 -3 -24 -8 -63 -11 -88 -3 -25 -10 -54 -15 -65 -12 -26 -20 -84 -27
-172 -2 -40 -9 -73 -14 -73 -5 0 -9 -22 -9 -50 0 -27 -4 -50 -9 -50 -5 0 -12
-33 -15 -72 -9 -123 -17 -182 -26 -203 -5 -11 -12 -63 -14 -115 -8 -145 -17
-224 -27 -234 -5 -6 -9 -43 -9 -83 0 -42 -4 -73 -10 -73 -6 0 -10 -28 -10 -64
0 -36 -4 -68 -10 -71 -6 -4 -10 -57 -10 -125 0 -68 -4 -121 -10 -125 -6 -4
-10 -60 -10 -135 0 -75 -4 -131 -10 -135 -6 -4 -10 -55 -10 -120 0 -65 -4
-116 -10 -120 -6 -4 -10 -68 -10 -159 0 -84 -4 -156 -10 -162 -10 -10 -17
-246 -25 -809 -3 -196 -9 -359 -15 -370 -5 -11 -12 -114 -15 -230 -11 -401
-25 -901 -30 -1074 -4 -112 -2 -178 4 -184 14 -14 81 -37 108 -37 12 0 25 -4
28 -10 3 -5 17 -10 31 -10 13 0 24 -4 24 -10 0 -5 10 -10 23 -10 26 0 77 -21
77 -32 0 -5 9 -8 20 -8 11 0 20 -4 20 -9 0 -5 8 -11 18 -14 29 -9 75 -40 103
-69 15 -16 31 -28 36 -28 11 0 113 -100 113 -111 0 -4 10 -18 23 -31 12 -13
28 -35 36 -50 20 -39 62 -38 90 1 12 16 21 32 21 35 0 11 206 211 236 229 16
10 46 25 67 35 20 9 37 20 37 24 0 5 9 8 20 8 11 0 20 3 20 8 0 9 72 32 99 32
11 0 23 5 26 10 3 6 19 10 34 10 15 0 39 6 53 12 43 21 50 66 44 313 -15 592
-26 943 -36 1070 -5 77 -14 241 -20 365 -5 124 -14 324 -20 445 -5 121 -14
324 -20 450 -11 237 -22 397 -40 570 -9 90 -18 204 -35 435 -3 41 -10 84 -15
95 -5 11 -12 74 -14 140 -10 222 -18 320 -27 329 -5 6 -9 43 -9 82 0 40 -4 76
-10 79 -5 3 -10 39 -10 79 0 39 -4 76 -9 82 -5 5 -12 34 -15 64 -9 96 -18 145
-27 155 -5 5 -9 35 -9 66 0 32 -4 61 -10 64 -5 3 -10 28 -10 56 0 27 -4 49
-10 49 -5 0 -10 22 -10 49 0 28 -4 53 -10 56 -5 3 -10 24 -10 45 0 21 -4 42
-10 45 -5 3 -10 26 -10 50 0 24 -4 47 -10 50 -5 3 -10 26 -10 50 0 24 -4 47
-10 50 -5 3 -10 24 -10 46 0 21 -4 39 -10 39 -5 0 -10 18 -10 39 0 22 -4 42
-9 45 -9 6 -15 37 -27 136 -3 25 -10 49 -15 55 -5 5 -9 21 -9 36 0 15 -4 31
-10 34 -5 3 -10 19 -10 35 0 16 -4 32 -10 35 -5 3 -10 16 -10 27 0 12 -4 35
-9 52 -5 17 -15 51 -21 76 -7 25 -16 53 -21 62 -5 10 -9 29 -9 43 0 14 -4 25
-10 25 -5 0 -10 14 -10 30 0 17 -4 30 -10 30 -5 0 -10 11 -10 24 0 14 -4 28
-10 31 -5 3 -10 16 -10 28 -1 20 -21 57 -31 57 -2 0 -10 -9 -17 -20z m76 -645
c7 -14 12 -37 12 -50 0 -14 5 -25 10 -25 6 0 10 -18 10 -39 0 -22 4 -42 9 -45
8 -6 14 -31 27 -133 3 -24 10 -43 14 -43 4 0 10 -19 13 -42 3 -24 11 -68 17
-98 6 -30 14 -79 17 -107 3 -29 9 -53 14 -53 5 0 9 -22 9 -50 0 -27 5 -50 10
-50 6 0 10 -22 10 -50 0 -27 5 -50 10 -50 6 0 10 -22 10 -49 0 -28 5 -53 10
-56 6 -3 10 -28 10 -55 0 -27 5 -52 10 -55 6 -3 10 -37 10 -76 0 -38 4 -69 9
-69 5 0 12 -33 15 -72 15 -189 17 -214 26 -233 9 -20 12 -45 30 -265 5 -63 14
-158 20 -210 6 -52 15 -187 21 -300 5 -113 14 -290 19 -395 15 -290 29 -586
40 -835 6 -124 15 -317 20 -430 13 -266 27 -606 40 -950 5 -151 12 -347 16
-435 l6 -161 -28 -27 c-14 -15 -33 -27 -40 -27 -8 0 -14 -4 -14 -8 0 -5 -12
-15 -27 -23 -16 -8 -35 -21 -43 -29 -8 -9 -31 -27 -50 -40 -19 -14 -44 -32
-54 -42 -11 -10 -24 -18 -28 -18 -5 0 -24 -15 -43 -34 -19 -19 -48 -42 -64
-52 -17 -10 -31 -22 -31 -26 0 -4 -9 -8 -20 -8 -11 0 -20 -4 -20 -9 0 -11 -49
-21 -67 -14 -11 4 -13 520 -13 2909 0 2877 1 2954 30 2954 4 0 12 -11 18 -25z"/>
<path d="M5340 17510 c0 -16 -3 -30 -8 -30 -9 0 -32 -72 -32 -100 0 -11 -4
-20 -10 -20 -5 0 -10 -13 -10 -30 0 -16 -4 -30 -10 -30 -5 0 -10 -11 -10 -24
0 -14 -4 -28 -10 -31 -5 -3 -10 -19 -10 -36 0 -16 -4 -29 -10 -29 -5 0 -10
-13 -10 -30 0 -16 -4 -30 -10 -30 -5 0 -10 -15 -10 -34 0 -19 -4 -38 -10 -41
-5 -3 -10 -21 -10 -40 0 -19 -4 -36 -9 -39 -5 -3 -11 -20 -14 -38 -3 -18 -11
-53 -17 -78 -6 -25 -14 -60 -17 -77 -3 -18 -9 -33 -14 -33 -5 0 -9 -15 -9 -34
0 -19 -4 -38 -10 -41 -5 -3 -10 -24 -10 -45 0 -21 -4 -42 -10 -45 -5 -3 -10
-28 -10 -55 0 -27 -4 -52 -10 -55 -5 -3 -10 -24 -10 -46 0 -21 -4 -39 -10 -39
-5 0 -10 -18 -10 -40 0 -22 -4 -40 -9 -40 -5 0 -12 -24 -15 -52 -3 -29 -10
-81 -15 -115 -6 -35 -16 -91 -21 -125 -6 -35 -13 -85 -16 -113 -3 -27 -9 -59
-14 -70 -5 -11 -12 -54 -14 -95 -8 -118 -17 -184 -27 -194 -5 -6 -9 -43 -9
-82 0 -40 -4 -76 -10 -79 -5 -3 -10 -28 -10 -54 0 -26 -4 -51 -9 -57 -5 -5
-12 -45 -15 -89 -3 -44 -10 -123 -16 -175 -16 -144 -30 -316 -40 -510 -5 -96
-14 -231 -20 -300 -12 -148 -28 -483 -35 -735 -3 -99 -10 -189 -15 -200 -5
-11 -12 -135 -15 -275 -14 -626 -20 -846 -27 -856 -4 -6 -8 -206 -8 -444 -1
-406 0 -433 17 -446 10 -7 28 -14 40 -14 12 0 25 -4 28 -10 3 -5 17 -10 31
-10 13 0 24 -4 24 -10 0 -5 11 -10 24 -10 14 0 28 -4 31 -10 3 -5 15 -10 26
-10 10 0 19 -4 19 -10 0 -5 9 -10 20 -10 11 0 20 -4 20 -10 0 -5 9 -10 20 -10
11 0 20 -4 20 -10 0 -5 6 -10 13 -10 7 0 22 -8 33 -17 10 -10 31 -24 47 -32
15 -8 27 -18 27 -23 0 -4 6 -8 14 -8 17 0 186 -183 186 -203 0 -4 11 -19 25
-33 l25 -25 91 92 c49 51 97 105 106 120 9 14 29 34 45 43 16 10 39 27 51 39
12 12 40 31 62 43 22 11 50 26 63 32 52 28 63 32 77 32 8 0 15 5 15 10 0 6 13
10 29 10 17 0 33 5 36 10 3 6 25 10 48 10 24 0 52 8 65 18 l23 18 -6 254 c-12
619 -46 1577 -75 2130 -20 387 -30 587 -35 715 -3 72 -10 139 -15 150 -5 11
-12 70 -14 130 -3 61 -10 157 -16 215 -6 58 -15 152 -20 210 -9 98 -14 140
-40 338 -6 42 -13 106 -16 142 -3 36 -9 74 -14 85 -8 19 -13 51 -26 185 -3 30
-9 64 -14 75 -5 11 -12 45 -15 75 -14 141 -17 160 -25 160 -4 0 -11 24 -14 53
-12 115 -18 152 -27 162 -5 5 -9 31 -9 57 0 26 -4 48 -9 48 -9 0 -15 37 -27
148 -3 28 -10 52 -15 52 -5 0 -9 18 -9 40 0 22 -4 40 -10 40 -5 0 -10 18 -10
40 0 22 -4 40 -10 40 -5 0 -10 18 -10 40 0 22 -4 40 -10 40 -5 0 -10 18 -10
40 0 22 -4 40 -10 40 -5 0 -10 18 -10 40 0 22 -4 40 -10 40 -5 0 -10 18 -10
40 0 22 -4 40 -10 40 -5 0 -10 18 -10 40 0 22 -4 40 -10 40 -5 0 -10 14 -10
30 0 29 -3 38 -28 87 -7 13 -12 34 -12 47 0 14 -4 28 -10 31 -5 3 -10 19 -10
36 0 16 -4 29 -8 29 -5 0 -15 23 -22 50 -10 37 -18 50 -32 50 -13 0 -18 -8
-18 -30z m86 -664 c8 -8 14 -26 14 -40 0 -14 4 -27 9 -30 5 -3 12 -24 15 -46
3 -22 9 -58 12 -80 3 -22 10 -43 15 -46 5 -3 9 -23 9 -44 0 -21 5 -42 10 -45
6 -3 10 -16 10 -29 0 -12 4 -26 9 -31 9 -10 18 -64 27 -172 3 -35 10 -63 15
-63 5 0 9 -19 9 -43 0 -24 4 -47 9 -53 5 -5 12 -31 15 -59 3 -27 10 -79 16
-115 6 -36 14 -101 16 -145 3 -44 10 -84 15 -90 5 -5 9 -33 9 -62 0 -29 5 -53
10 -53 6 0 10 -29 10 -68 0 -37 4 -72 9 -77 5 -6 12 -44 15 -85 4 -41 11 -118
17 -170 16 -159 32 -357 58 -745 5 -77 13 -225 16 -330 4 -104 10 -199 15
-210 5 -11 12 -112 15 -225 3 -113 10 -302 15 -420 6 -118 14 -352 20 -520 5
-168 14 -408 20 -535 6 -126 13 -356 16 -510 l5 -280 -47 -42 c-26 -24 -53
-43 -59 -43 -6 0 -17 -9 -25 -20 -8 -11 -21 -20 -30 -20 -9 0 -22 -9 -30 -20
-8 -11 -20 -20 -27 -20 -7 0 -32 -18 -54 -40 -23 -22 -48 -40 -55 -40 -8 0
-14 -4 -14 -8 0 -4 -14 -16 -30 -26 -17 -9 -41 -28 -55 -42 -13 -13 -31 -24
-40 -24 -8 0 -15 -4 -15 -10 0 -5 -9 -10 -20 -10 -20 0 -20 7 -20 2885 0 3065
-2 2948 46 2901z"/>
<path d="M7500 15600 c0 -11 -4 -20 -10 -20 -5 0 -10 -9 -10 -20 0 -11 -4 -20
-10 -20 -5 0 -10 -7 -10 -15 0 -8 -4 -23 -9 -33 -5 -9 -14 -30 -21 -47 -7 -16
-16 -38 -21 -47 -5 -10 -9 -25 -9 -33 0 -8 -4 -23 -9 -33 -15 -29 -29 -65 -42
-107 -7 -22 -17 -44 -21 -49 -4 -6 -8 -22 -8 -36 0 -14 -9 -50 -20 -80 -11
-30 -20 -67 -20 -82 0 -15 -4 -30 -10 -33 -5 -3 -10 -19 -10 -36 0 -16 -4 -29
-9 -29 -5 0 -11 -19 -15 -42 -10 -85 -18 -118 -27 -118 -5 0 -9 -22 -9 -50 0
-27 -4 -50 -10 -50 -5 0 -10 -20 -10 -44 0 -25 -4 -48 -10 -51 -5 -3 -10 -30
-10 -59 0 -28 -4 -56 -9 -61 -5 -6 -12 -30 -15 -55 -4 -25 -11 -74 -16 -110
-5 -36 -12 -87 -15 -115 -3 -27 -10 -59 -15 -70 -9 -19 -12 -52 -25 -275 -3
-47 -10 -94 -15 -105 -5 -11 -12 -67 -15 -125 -13 -251 -25 -465 -35 -600 -6
-80 -13 -244 -16 -365 -2 -121 -9 -229 -14 -240 -6 -12 -12 -237 -15 -580 -6
-743 -11 -990 -18 -1009 -4 -11 -19 -16 -47 -16 -43 0 -70 17 -70 44 0 9 -4
16 -10 16 -6 0 -10 49 -10 128 0 70 -4 132 -9 137 -5 6 -12 48 -15 95 -15 224
-18 256 -27 265 -5 5 -9 32 -9 60 0 28 -4 55 -9 60 -5 6 -12 44 -14 85 -3 41
-10 100 -17 130 -6 30 -14 80 -17 110 -2 30 -9 59 -14 65 -5 5 -9 30 -9 56 0
26 -4 51 -10 54 -5 3 -10 21 -10 40 0 19 -4 37 -10 40 -5 3 -10 22 -10 41 0
19 -4 34 -10 34 -5 0 -10 13 -10 29 0 17 -4 33 -10 36 -5 3 -10 17 -10 31 0
13 -4 24 -10 24 -5 0 -10 7 -10 15 0 8 -4 23 -9 33 -5 9 -17 34 -26 55 -14 33
-18 35 -31 23 -7 -8 -14 -22 -14 -30 0 -9 -4 -16 -10 -16 -5 0 -10 -9 -10 -19
0 -11 -4 -23 -10 -26 -5 -3 -10 -17 -10 -31 0 -13 -4 -24 -10 -24 -5 0 -10
-11 -10 -25 0 -14 -4 -33 -9 -43 -14 -29 -31 -87 -31 -110 0 -11 -4 -24 -10
-27 -5 -3 -10 -21 -10 -40 0 -19 -4 -37 -10 -40 -5 -3 -10 -26 -10 -51 0 -24
-4 -44 -10 -44 -6 0 -10 -28 -10 -64 0 -36 -4 -68 -10 -71 -5 -3 -10 -33 -10
-66 0 -33 -4 -59 -10 -59 -6 0 -10 -26 -10 -59 0 -33 -4 -63 -10 -66 -5 -3
-10 -28 -10 -55 0 -27 -4 -52 -10 -55 -5 -3 -10 -37 -10 -75 0 -38 -4 -72 -10
-75 -6 -3 -10 -48 -10 -100 l0 -93 30 -14 c17 -7 30 -16 30 -19 0 -3 23 -16
50 -29 28 -13 50 -27 50 -32 0 -4 6 -8 13 -8 11 0 68 -43 91 -68 4 -5 18 -20
30 -33 11 -13 27 -36 35 -51 8 -16 18 -28 23 -28 4 0 8 -8 8 -18 0 -10 9 -24
20 -32 11 -8 20 -22 20 -32 0 -10 5 -18 10 -18 6 0 10 -9 10 -20 0 -11 5 -20
10 -20 6 0 10 -13 10 -30 0 -16 4 -30 9 -30 29 0 29 -404 0 -435 -5 -5 -9 -24
-9 -41 0 -18 -4 -36 -10 -39 -5 -3 -10 -19 -10 -34 0 -37 -34 -71 -70 -71 -17
0 -30 5 -30 10 0 6 -13 10 -29 10 -17 0 -33 5 -36 10 -3 6 -17 10 -31 10 -13
0 -24 3 -24 8 0 29 -227 45 -262 18 -14 -10 -18 -28 -18 -84 0 -39 5 -74 10
-77 6 -3 10 -24 10 -46 0 -21 5 -39 10 -39 6 0 10 -10 10 -22 0 -13 11 -36 25
-52 14 -16 25 -33 25 -37 0 -12 108 -119 120 -119 5 0 24 -15 43 -32 18 -18
43 -39 55 -45 26 -15 92 -17 92 -3 0 6 8 10 17 10 17 0 229 209 251 248 6 12
12 29 12 37 0 8 5 15 10 15 6 0 10 7 10 15 0 31 55 105 77 105 26 0 35 -57 44
-275 13 -327 15 -341 49 -365 15 -11 35 -20 43 -20 9 0 19 -4 22 -10 3 -5 15
-10 26 -10 10 0 19 -4 19 -10 0 -5 8 -10 18 -10 10 0 24 -9 32 -20 8 -11 21
-20 30 -20 9 0 22 -9 30 -20 8 -11 20 -20 27 -20 13 0 60 -37 97 -78 61 -67
86 -97 86 -105 0 -5 16 -24 36 -43 46 -41 50 -39 153 65 42 42 92 87 111 101
19 13 47 37 62 52 14 15 30 28 35 28 4 0 24 14 43 30 19 16 41 30 48 30 6 0
12 5 12 10 0 6 6 10 13 10 20 0 107 83 107 102 0 9 5 20 10 23 6 4 10 98 10
249 0 249 3 266 40 266 20 0 60 -44 60 -65 0 -8 5 -15 10 -15 6 0 10 -6 10
-12 0 -7 11 -26 25 -42 14 -16 25 -33 25 -38 0 -13 120 -128 134 -128 6 0 18
-9 26 -20 8 -11 20 -20 26 -20 6 0 25 -14 42 -30 38 -36 93 -40 132 -10 14 11
29 20 33 20 4 0 20 12 35 26 15 14 39 32 53 41 15 9 34 28 43 44 9 16 22 34
29 41 17 19 47 69 54 91 3 9 9 17 14 17 5 0 9 14 9 30 0 17 5 30 10 30 6 0 10
35 10 86 0 82 -1 88 -27 110 -24 20 -39 24 -100 24 -42 0 -73 -4 -73 -10 0 -5
-11 -10 -24 -10 -14 0 -28 -4 -31 -10 -3 -5 -15 -10 -26 -10 -10 0 -19 -4 -19
-8 0 -4 -21 -13 -47 -21 -27 -7 -58 -17 -69 -23 -26 -12 -64 -2 -64 18 0 8 -3
14 -8 14 -4 0 -13 15 -20 33 -7 17 -18 40 -23 49 -5 10 -9 27 -9 37 0 11 -4
22 -9 25 -15 10 -23 85 -23 216 0 130 8 208 23 225 5 5 9 19 9 32 0 13 5 23
10 23 6 0 10 6 10 14 0 18 40 96 63 120 9 11 17 24 17 28 0 16 188 198 204
198 9 0 16 5 16 10 0 6 9 10 20 10 11 0 20 5 20 10 0 6 10 10 23 10 27 1 57
22 57 42 0 8 5 19 11 25 7 7 9 29 5 60 -4 26 -9 80 -12 118 -3 39 -10 74 -15
80 -5 5 -9 35 -9 66 0 32 -4 61 -10 64 -5 3 -10 30 -10 60 0 30 -4 57 -10 60
-5 3 -10 37 -10 75 0 38 -4 72 -10 75 -5 3 -10 26 -10 51 0 24 -4 44 -10 44
-5 0 -10 23 -10 50 0 28 -4 50 -10 50 -5 0 -10 15 -10 33 0 18 -4 37 -9 42 -5
6 -11 28 -15 50 -12 87 -19 115 -27 115 -5 0 -9 18 -9 40 0 22 -4 40 -10 40
-5 0 -10 13 -10 29 0 17 -4 33 -10 36 -5 3 -10 17 -10 31 0 13 -4 24 -10 24
-5 0 -10 9 -10 20 0 23 -25 27 -46 6 -8 -8 -14 -26 -14 -40 0 -14 -4 -28 -10
-31 -5 -3 -10 -17 -10 -31 0 -13 -4 -24 -10 -24 -5 0 -10 -15 -10 -34 0 -19
-4 -38 -10 -41 -5 -3 -10 -19 -10 -36 0 -16 -4 -29 -10 -29 -5 0 -10 -15 -10
-34 0 -19 -4 -38 -10 -41 -5 -3 -10 -24 -10 -45 0 -21 -4 -42 -10 -45 -5 -3
-10 -24 -10 -45 0 -21 -4 -42 -10 -45 -5 -3 -10 -33 -10 -66 0 -33 -4 -59 -10
-59 -5 0 -10 -22 -10 -49 0 -28 -4 -53 -10 -56 -5 -3 -10 -28 -10 -55 0 -27
-4 -52 -10 -55 -5 -3 -10 -30 -10 -60 0 -30 -4 -57 -10 -60 -5 -3 -10 -33 -10
-65 0 -32 -4 -62 -10 -65 -5 -3 -10 -33 -10 -65 0 -32 -4 -62 -10 -65 -6 -4
-10 -55 -10 -120 0 -65 -4 -116 -10 -120 -5 -3 -10 -37 -10 -75 0 -38 -4 -72
-10 -75 -5 -3 -10 -17 -10 -31 0 -22 -4 -24 -50 -24 -49 0 -50 1 -50 30 0 17
-5 30 -12 30 -8 0 -9 85 -3 338 4 185 7 344 7 352 -13 155 -25 442 -33 750
-15 632 -20 760 -29 760 -5 0 -11 64 -14 143 -3 78 -10 198 -16 267 -6 69 -13
188 -16 265 -3 77 -9 144 -15 149 -5 6 -9 44 -9 86 0 42 -4 80 -9 86 -9 8 -12
29 -27 194 -3 36 -10 69 -15 75 -5 5 -9 28 -9 51 0 24 -4 46 -10 49 -5 3 -10
28 -10 55 0 27 -4 52 -10 55 -5 3 -10 23 -10 44 0 20 -4 41 -9 46 -5 6 -12 35
-15 65 -11 110 -18 150 -27 150 -5 0 -9 15 -9 34 0 19 -4 38 -10 41 -5 3 -10
21 -10 40 0 19 -4 37 -10 40 -5 3 -10 19 -10 36 0 16 -4 29 -10 29 -5 0 -10
13 -10 29 0 17 -4 33 -10 36 -5 3 -10 17 -10 31 0 13 -5 34 -12 47 -24 48 -28
57 -28 77 0 11 -4 20 -10 20 -5 0 -10 14 -10 30 0 17 -4 30 -10 30 -5 0 -10
11 -10 24 0 14 -4 28 -10 31 -5 3 -10 17 -10 30 0 13 -4 26 -8 29 -4 3 -14 28
-22 55 -7 28 -17 51 -22 51 -4 0 -8 9 -8 20 0 11 -4 20 -10 20 -5 0 -10 7 -10
16 0 15 -23 44 -34 44 -3 0 -6 -9 -6 -20z m80 -580 c0 -11 5 -20 10 -20 6 0
10 -22 10 -50 0 -27 5 -50 10 -50 6 0 10 -22 10 -50 0 -27 4 -50 9 -50 5 0 11
-19 14 -42 3 -24 10 -63 17 -88 6 -25 14 -63 16 -85 3 -22 9 -49 14 -60 5 -11
11 -33 15 -50 16 -77 27 -134 32 -172 3 -24 9 -43 13 -43 5 0 11 -33 14 -72 3
-40 10 -111 16 -158 6 -47 13 -121 16 -165 3 -44 10 -84 15 -90 5 -5 9 -43 9
-85 0 -42 4 -80 9 -85 6 -6 12 -59 15 -120 3 -60 10 -168 16 -240 6 -71 15
-256 20 -410 21 -613 30 -907 40 -1290 5 -220 12 -467 15 -550 4 -100 2 -156
-5 -170 -8 -14 -9 -66 -5 -160 12 -275 16 -1205 5 -1205 -5 0 -10 -7 -10 -15
0 -19 -35 -55 -72 -74 -16 -8 -28 -18 -28 -23 0 -4 -6 -8 -14 -8 -7 0 -26 -12
-42 -28 -16 -15 -39 -35 -52 -43 -12 -9 -40 -33 -62 -53 -30 -27 -48 -36 -75
-36 l-35 0 0 2915 c0 2319 3 2919 13 2930 17 20 27 18 27 -5z"/>
<path d="M4620 10930 c0 -5 -10 -10 -22 -10 -13 0 -41 -7 -63 -16 -22 -8 -48
-17 -57 -21 -10 -3 -18 -9 -18 -14 0 -5 -9 -9 -20 -9 -11 0 -20 -4 -20 -8 0
-5 -12 -15 -27 -23 -35 -18 -103 -86 -124 -124 -91 -163 -98 -183 -105 -320
-4 -68 -2 -85 16 -112 15 -26 27 -33 50 -33 16 0 30 4 30 9 0 31 316 31 336 0
3 -5 15 -9 28 -9 12 0 26 -4 32 -8 5 -4 27 -14 49 -21 22 -8 60 -28 85 -44 50
-35 154 -136 188 -184 35 -49 82 -143 82 -163 0 -11 5 -22 10 -25 6 -3 10 -33
10 -66 0 -54 -3 -63 -33 -92 -17 -18 -44 -38 -60 -46 -15 -8 -27 -18 -27 -23
0 -4 -7 -8 -14 -8 -18 0 -66 -61 -66 -83 0 -10 -4 -17 -10 -17 -6 0 -10 -40
-10 -99 0 -56 4 -103 10 -106 6 -3 10 -22 10 -41 0 -19 5 -34 10 -34 6 0 10
-18 10 -40 0 -22 5 -40 10 -40 6 0 10 -13 10 -30 0 -16 5 -30 10 -30 6 0 10
-13 10 -29 0 -17 5 -33 10 -36 6 -3 10 -17 10 -31 0 -13 5 -24 10 -24 6 0 10
-13 10 -30 0 -16 5 -30 10 -30 6 0 10 -11 10 -24 0 -14 5 -28 10 -31 6 -3 10
-15 10 -26 0 -10 5 -19 10 -19 6 0 10 -9 10 -20 0 -11 5 -20 10 -20 6 0 10 -9
10 -19 0 -11 3 -21 8 -23 9 -4 41 -57 49 -80 3 -10 9 -18 14 -18 5 0 9 -6 9
-12 0 -7 14 -29 30 -48 16 -19 30 -41 30 -47 0 -7 5 -13 10 -13 6 0 10 -7 10
-15 0 -9 9 -25 20 -37 11 -12 20 -28 20 -35 0 -7 4 -13 8 -13 5 0 15 -12 23
-27 8 -16 21 -35 29 -43 9 -8 27 -31 40 -50 14 -19 39 -50 57 -68 18 -18 33
-37 33 -42 0 -5 19 -29 43 -52 23 -24 53 -59 67 -78 13 -19 47 -57 74 -83 l49
-48 -23 -41 c-12 -22 -80 -98 -151 -169 -71 -71 -129 -136 -129 -144 0 -8 -4
-15 -8 -15 -4 0 -19 -22 -33 -50 -13 -27 -27 -50 -31 -50 -5 0 -8 -6 -8 -13 0
-7 -9 -23 -20 -35 -11 -12 -20 -28 -20 -37 0 -8 -3 -15 -7 -15 -9 0 -33 -49
-33 -67 0 -7 -3 -13 -8 -13 -4 0 -13 -18 -20 -40 -15 -48 -16 -240 -2 -240 6
0 10 -9 10 -20 0 -11 5 -20 10 -20 6 0 10 -8 10 -18 0 -10 9 -24 20 -32 11 -8
20 -20 20 -28 0 -7 11 -24 24 -37 14 -14 33 -38 42 -55 10 -16 23 -30 29 -30
6 0 21 -9 33 -20 12 -11 28 -20 37 -20 8 0 15 -4 15 -10 0 -5 7 -10 15 -10 8
0 23 -4 33 -9 59 -30 190 -42 230 -22 9 5 40 19 67 32 28 13 52 26 55 29 3 3
19 12 35 20 52 25 65 41 65 81 0 21 -4 41 -10 44 -5 3 -10 15 -10 26 0 10 -4
19 -10 19 -5 0 -10 7 -10 15 0 8 -4 24 -10 35 -5 11 -14 29 -20 40 -5 11 -10
29 -10 39 0 11 -4 23 -10 26 -6 4 -10 67 -10 156 0 93 4 149 10 149 6 0 10 11
10 25 0 14 9 45 20 67 11 23 20 48 20 55 0 7 5 13 10 13 6 0 10 7 10 16 0 9
20 36 44 60 35 35 50 44 79 44 19 0 37 -3 39 -7 4 -10 57 -42 81 -50 9 -3 17
-9 17 -14 0 -5 9 -9 20 -9 11 0 20 -4 20 -10 0 -5 6 -10 13 -10 7 0 23 -9 35
-20 12 -11 28 -20 37 -20 8 0 15 -4 15 -10 0 -5 7 -10 15 -10 8 0 24 -4 35
-10 11 -6 29 -14 40 -20 11 -6 27 -10 35 -10 8 0 15 -4 15 -10 0 -5 14 -10 30
-10 17 0 30 -4 30 -10 0 -5 11 -10 24 -10 14 0 28 -4 31 -10 3 -5 19 -10 36
-10 16 0 29 -4 29 -10 0 -5 11 -10 25 -10 13 0 35 -5 49 -11 49 -23 126 35
126 94 0 14 5 29 10 32 6 3 10 15 10 26 0 10 5 19 10 19 6 0 10 13 10 29 0 16
4 31 8 33 5 2 12 20 15 40 6 40 -16 78 -47 78 -9 0 -16 5 -16 10 0 6 -9 10
-20 10 -11 0 -30 5 -43 12 -48 24 -57 28 -77 28 -11 0 -20 5 -20 10 0 6 -9 10
-20 10 -11 0 -20 5 -20 10 0 6 -9 10 -20 10 -11 0 -20 5 -20 10 0 6 -9 10 -20
10 -11 0 -20 5 -20 10 0 6 -9 10 -20 10 -11 0 -20 5 -20 10 0 6 -9 10 -20 10
-11 0 -20 5 -20 10 0 6 -9 10 -20 10 -11 0 -20 5 -20 10 0 6 -9 10 -20 10 -11
0 -20 5 -20 10 0 6 -9 10 -20 10 -11 0 -20 5 -20 10 0 6 -6 10 -13 10 -7 0
-22 8 -33 18 -10 9 -31 23 -46 31 -16 8 -28 18 -28 23 0 4 -7 8 -15 8 -8 0
-29 14 -47 30 -17 17 -36 30 -42 30 -6 0 -18 9 -26 20 -8 11 -20 20 -26 20 -7
0 -39 26 -71 58 -32 31 -83 77 -113 102 -73 60 -145 133 -167 170 -9 17 -21
30 -25 30 -4 0 -8 6 -8 14 0 7 -13 27 -30 44 -16 18 -30 38 -30 45 0 7 -9 19
-20 27 -11 8 -20 21 -20 30 0 9 -9 22 -20 30 -11 8 -20 21 -20 30 0 9 -9 22
-20 30 -11 8 -20 21 -20 30 0 9 -9 22 -20 30 -11 8 -20 22 -20 32 0 10 -4 18
-10 18 -5 0 -10 9 -10 20 0 11 -4 20 -10 20 -5 0 -10 9 -10 20 0 11 -4 20 -10
20 -5 0 -10 7 -10 15 0 8 -5 25 -12 38 -24 47 -28 57 -28 72 0 8 -4 15 -8 15
-5 0 -15 23 -22 50 -7 28 -17 50 -22 50 -4 0 -8 15 -8 34 0 19 -4 38 -10 41
-13 8 -13 50 -1 73 5 9 12 25 15 35 3 9 14 17 25 17 11 0 23 5 26 10 3 6 15
10 26 10 10 0 19 -4 19 -10 0 -5 7 -10 16 -10 22 0 44 -25 44 -49 0 -11 5 -23
10 -26 6 -3 10 -15 10 -26 0 -10 5 -19 10 -19 6 0 10 -11 10 -24 0 -14 5 -28
10 -31 6 -3 10 -15 10 -26 0 -10 5 -19 10 -19 6 0 10 -9 10 -20 0 -11 5 -20
10 -20 6 0 10 -9 10 -20 0 -11 5 -20 10 -20 6 0 10 -6 10 -13 0 -18 24 -67 33
-67 4 0 7 -9 7 -20 0 -11 5 -20 10 -20 6 0 10 -9 10 -20 0 -11 5 -20 10 -20 6
0 10 -7 10 -15 0 -9 11 -27 25 -41 14 -14 25 -29 25 -34 0 -5 11 -20 25 -34
14 -14 25 -30 25 -37 0 -6 14 -24 30 -39 17 -15 30 -32 30 -37 0 -4 14 -24 30
-43 16 -19 30 -39 30 -43 0 -12 288 -297 300 -297 6 0 22 -11 36 -25 14 -14
29 -25 33 -25 4 0 21 -11 37 -25 16 -14 35 -25 42 -25 6 0 12 -4 12 -8 0 -5
12 -15 28 -23 15 -8 29 -16 32 -19 10 -10 65 -41 83 -47 9 -3 17 -9 17 -14 0
-5 9 -9 20 -9 11 0 20 -4 20 -10 0 -5 9 -10 20 -10 11 0 20 -4 20 -10 0 -5 9
-10 20 -10 11 0 20 -4 20 -10 0 -5 14 -10 30 -10 17 0 30 -4 30 -10 0 -5 9
-10 19 -10 11 0 23 -4 26 -10 3 -5 19 -10 35 -10 16 0 32 -4 35 -10 3 -5 19
-10 36 -10 21 0 29 5 29 18 0 10 5 23 11 29 9 9 9 20 0 44 -6 17 -11 58 -11
90 0 33 -4 59 -10 59 -5 0 -10 11 -10 25 0 14 -6 35 -12 47 -17 28 -68 79 -98
96 -69 41 -92 52 -103 52 -7 0 -22 8 -33 18 -10 9 -31 23 -46 31 -16 8 -28 18
-28 23 0 4 -6 8 -12 8 -7 0 -29 14 -48 30 -19 16 -38 30 -43 30 -4 0 -21 14
-39 30 -17 17 -35 30 -40 30 -12 0 -238 229 -238 241 0 5 -9 19 -20 31 -11 12
-20 28 -20 35 0 7 -4 13 -10 13 -5 0 -10 6 -10 13 0 6 -14 28 -30 47 -16 19
-30 41 -30 48 0 6 -4 12 -10 12 -5 0 -10 9 -10 20 0 11 -4 20 -10 20 -5 0 -10
6 -10 13 0 7 -9 23 -20 35 -11 12 -20 28 -20 37 0 8 -4 15 -10 15 -5 0 -10 7
-10 15 0 8 -4 23 -9 33 -18 36 -31 90 -31 130 0 23 -4 42 -10 42 -6 0 -10 38
-10 94 0 53 -4 98 -10 101 -5 3 -10 18 -10 32 0 16 -7 27 -20 30 -11 3 -20 9
-20 14 0 5 -11 9 -24 9 -14 0 -28 5 -31 10 -3 6 -15 10 -26 10 -10 0 -19 5
-19 10 0 6 -13 10 -30 10 -16 0 -30 3 -30 8 0 4 -13 13 -30 20 -32 14 -38 37
-20 72 6 11 15 29 20 40 6 11 10 29 10 40 0 11 5 20 10 20 6 0 10 7 10 14 0
20 264 286 284 286 9 0 16 5 16 10 0 6 9 10 20 10 11 0 20 5 20 10 0 6 6 10
13 10 7 0 32 9 55 20 37 18 61 20 251 20 l210 0 17 35 c11 24 14 47 10 77 -4
24 -9 62 -12 86 -3 23 -10 42 -15 42 -5 0 -9 9 -9 20 0 28 -23 100 -32 100 -5
0 -8 9 -8 20 0 11 -4 20 -10 20 -5 0 -10 6 -10 13 0 6 -14 28 -30 47 -16 19
-30 39 -30 43 0 14 -92 97 -107 97 -7 0 -13 5 -13 10 0 6 -9 10 -20 10 -11 0
-20 5 -20 10 0 6 -9 10 -19 10 -11 0 -23 5 -26 10 -3 6 -19 10 -35 10 -16 0
-32 5 -35 10 -9 15 -225 13 -258 -2 -15 -7 -27 -16 -27 -20 0 -5 -6 -8 -14 -8
-7 0 -27 -13 -44 -30 -18 -16 -36 -30 -41 -30 -8 0 -40 -33 -81 -86 -8 -11
-21 -32 -29 -47 -8 -15 -18 -27 -23 -27 -4 0 -8 -6 -8 -12 0 -7 -12 -26 -26
-43 -14 -16 -28 -42 -31 -58 -3 -15 -10 -30 -14 -33 -5 -3 -9 -21 -9 -40 0
-19 -4 -34 -10 -34 -6 0 -10 -26 -10 -59 0 -33 -4 -63 -10 -66 -5 -3 -10 -18
-10 -33 -1 -33 -21 -62 -44 -62 -9 0 -16 -4 -16 -10 0 -17 -50 -11 -71 9 -33
30 -49 69 -49 117 0 23 -4 46 -10 49 -5 3 -10 24 -10 45 0 21 -4 42 -10 45 -5
3 -10 17 -10 29 0 26 -56 141 -82 170 -10 11 -18 25 -18 31 0 6 -9 17 -20 25
-11 8 -20 20 -20 26 0 17 -89 104 -106 104 -8 0 -14 5 -14 10 0 6 -11 10 -24
10 -14 0 -28 5 -31 10 -3 6 -17 10 -30 10 -13 0 -27 5 -30 10 -4 6 -53 10
-116 10 -66 0 -109 -4 -109 -10z"/>
<path d="M8965 10890 c-3 -5 -19 -10 -36 -10 -16 0 -29 -4 -29 -10 0 -5 -12
-10 -26 -10 -15 0 -45 -10 -67 -22 -52 -29 -187 -160 -187 -181 0 -10 -4 -17
-8 -17 -5 0 -19 -21 -32 -47 -12 -27 -26 -56 -31 -65 -5 -10 -9 -31 -9 -47 0
-17 -4 -33 -10 -36 -5 -3 -10 -41 -10 -84 0 -68 3 -80 23 -99 22 -21 32 -22
230 -22 131 0 207 -4 207 -10 0 -5 10 -10 23 -10 26 0 77 -21 77 -32 0 -5 7
-8 15 -8 9 0 25 -9 37 -20 12 -11 28 -20 35 -20 7 0 13 -4 13 -10 0 -5 9 -10
20 -10 11 0 20 -4 20 -8 0 -4 12 -15 28 -24 38 -23 64 -48 92 -88 14 -19 32
-44 42 -54 10 -11 18 -26 18 -33 0 -7 4 -13 9 -13 5 0 11 -8 14 -17 4 -10 13
-36 21 -58 9 -22 16 -57 16 -77 0 -31 -5 -39 -32 -52 -17 -9 -39 -16 -50 -16
-10 0 -18 -4 -18 -10 0 -5 -9 -10 -19 -10 -11 0 -23 -4 -26 -10 -3 -5 -15 -10
-26 -10 -48 0 -89 -79 -89 -173 0 -31 -4 -59 -10 -62 -5 -3 -10 -26 -10 -50 0
-24 -4 -47 -10 -50 -5 -3 -10 -19 -10 -36 0 -16 -4 -29 -10 -29 -5 0 -10 -9
-10 -20 0 -28 -23 -100 -32 -100 -5 0 -8 -9 -8 -20 0 -11 -4 -20 -10 -20 -5 0
-10 -9 -10 -20 0 -11 -4 -20 -10 -20 -5 0 -10 -6 -10 -14 0 -17 -42 -100 -52
-104 -5 -2 -8 -10 -8 -19 0 -8 -12 -27 -28 -41 -15 -15 -40 -44 -56 -65 -36
-49 -242 -257 -254 -257 -5 0 -22 -12 -38 -28 -16 -15 -45 -38 -64 -52 -19
-13 -44 -32 -54 -42 -11 -10 -26 -18 -33 -18 -7 0 -13 -4 -13 -10 0 -5 -9 -10
-20 -10 -11 0 -20 -4 -20 -10 0 -5 -9 -10 -20 -10 -11 0 -20 -4 -20 -10 0 -5
-6 -10 -14 -10 -17 0 -100 -42 -104 -52 -2 -5 -12 -8 -23 -8 -10 0 -19 -6 -19
-13 0 -7 -9 -23 -20 -35 -11 -12 -20 -33 -20 -47 0 -14 -4 -25 -9 -25 -9 0
-17 -55 -27 -187 l-6 -73 56 0 c30 0 58 5 61 10 3 6 17 10 30 10 13 0 27 5 30
10 3 6 15 10 26 10 10 0 19 5 19 10 0 6 9 10 20 10 11 0 20 4 20 9 0 5 8 11
18 14 9 4 36 18 60 32 23 14 51 25 62 25 11 0 20 5 20 10 0 6 9 10 20 10 11 0
20 5 20 10 0 6 6 10 13 10 7 0 23 9 35 20 12 11 28 20 37 20 8 0 15 5 15 10 0
6 6 10 13 10 6 0 28 14 47 30 19 16 39 30 44 30 5 0 16 8 25 18 9 10 30 27 46
39 45 31 285 273 285 287 0 6 9 18 20 26 11 8 20 20 20 26 0 6 18 30 40 53 22
22 40 46 40 51 0 6 9 20 20 32 11 12 20 28 20 35 0 7 5 13 10 13 6 0 10 7 10
15 0 9 9 25 20 37 11 12 20 28 20 35 0 7 5 13 10 13 6 0 10 6 10 13 0 7 9 23
20 35 11 12 20 28 20 37 0 8 5 15 10 15 6 0 10 9 10 20 0 11 4 20 8 20 5 0 15
23 22 50 7 28 17 50 22 50 4 0 8 14 8 30 0 17 5 30 10 30 6 0 10 9 10 20 0 11
5 20 10 20 6 0 10 7 10 15 0 44 59 105 101 105 52 0 79 -41 79 -117 0 -36 -4
-63 -10 -63 -5 0 -10 -13 -10 -30 0 -16 -4 -30 -10 -30 -5 0 -10 -9 -10 -20 0
-11 -9 -35 -20 -55 -11 -20 -20 -42 -20 -50 0 -8 -4 -15 -10 -15 -5 0 -10 -9
-10 -20 0 -11 -4 -20 -10 -20 -5 0 -10 -9 -10 -20 0 -11 -4 -20 -10 -20 -5 0
-10 -9 -10 -20 0 -11 -4 -20 -10 -20 -5 0 -10 -9 -10 -20 0 -11 -4 -20 -10
-20 -5 0 -10 -9 -10 -20 0 -11 -4 -20 -10 -20 -5 0 -10 -9 -10 -20 0 -11 -3
-20 -8 -20 -4 0 -13 -15 -21 -32 -14 -32 -68 -118 -81 -128 -3 -3 -17 -21 -30
-40 -13 -19 -27 -37 -30 -40 -3 -3 -17 -21 -30 -40 -13 -19 -37 -47 -52 -62
-15 -14 -28 -30 -28 -36 0 -14 -117 -132 -160 -162 -19 -13 -42 -31 -50 -40
-8 -9 -31 -27 -50 -40 -19 -13 -42 -32 -51 -42 -9 -10 -20 -18 -25 -18 -5 0
-25 -14 -44 -30 -19 -16 -41 -30 -47 -30 -7 0 -13 -4 -13 -10 0 -5 -7 -10 -15
-10 -8 0 -29 -13 -47 -30 -17 -16 -35 -30 -40 -30 -5 0 -18 -9 -30 -20 -12
-11 -28 -20 -35 -20 -7 0 -13 -4 -13 -10 0 -5 -7 -10 -15 -10 -8 0 -23 -4 -33
-9 -9 -5 -30 -14 -47 -21 -16 -7 -38 -16 -47 -21 -10 -5 -27 -9 -38 -9 -11 0
-20 -4 -20 -10 0 -5 -9 -10 -20 -10 -11 0 -20 -4 -20 -10 0 -5 -9 -10 -19 -10
-11 0 -23 -4 -26 -10 -3 -5 -17 -10 -31 -10 -13 0 -24 -4 -24 -10 0 -5 -13
-10 -30 -10 -16 0 -30 -4 -30 -10 0 -5 -8 -10 -17 -10 -10 0 -33 -9 -50 -20
-31 -19 -33 -23 -33 -80 0 -33 4 -60 10 -60 6 0 10 -15 10 -34 0 -19 4 -37 9
-40 4 -3 11 -19 14 -36 7 -34 57 -90 80 -90 8 0 17 -6 20 -12 3 -10 11 -10 39
0 19 6 44 12 56 12 12 0 22 5 22 10 0 6 13 10 29 10 17 0 33 5 36 10 3 6 17
10 31 10 13 0 24 5 24 10 0 6 7 10 15 10 8 0 24 5 35 10 11 6 29 14 40 20 11
5 27 10 35 10 8 0 15 5 15 10 0 6 9 10 20 10 11 0 20 5 20 10 0 6 9 10 20 10
11 0 20 3 20 8 0 8 49 32 67 32 7 0 13 5 13 10 0 6 7 10 15 10 8 0 23 4 33 9
83 42 109 51 143 51 43 0 72 -22 98 -72 8 -16 18 -28 23 -28 4 0 8 -9 8 -20 0
-11 5 -20 10 -20 6 0 10 -7 10 -15 0 -8 4 -23 9 -33 5 -9 14 -33 20 -53 14
-45 15 -339 1 -339 -5 0 -10 -14 -10 -30 0 -17 -4 -38 -9 -48 -5 -9 -14 -30
-21 -47 -7 -16 -16 -38 -21 -47 -5 -10 -9 -25 -9 -33 0 -8 -4 -15 -10 -15 -14
0 -13 -20 3 -53 6 -15 20 -27 30 -27 9 0 17 -4 17 -9 0 -5 8 -11 18 -14 9 -3
28 -12 42 -20 60 -35 105 -47 199 -54 39 -3 67 -1 74 6 6 6 23 11 38 11 15 0
31 5 34 10 3 6 17 10 31 10 13 0 24 5 24 10 0 6 6 10 13 10 7 0 23 9 35 20 12
11 26 20 31 20 6 0 23 17 38 37 15 21 36 47 46 57 9 11 17 26 17 33 0 7 5 13
10 13 6 0 10 8 10 18 0 10 4 22 9 27 5 6 12 42 15 80 17 189 17 215 7 215 -6
0 -11 6 -11 13 0 18 -24 67 -32 67 -5 0 -8 7 -8 15 0 9 -9 25 -20 37 -11 12
-20 28 -20 35 0 7 -4 13 -10 13 -5 0 -10 6 -10 13 0 6 -14 28 -30 47 -16 19
-30 38 -30 43 0 4 -13 21 -30 39 -16 17 -30 35 -30 40 0 12 -243 253 -263 261
-24 9 -21 42 6 79 12 18 79 89 150 160 70 70 127 131 127 136 0 5 12 22 28 39
15 16 33 39 40 51 6 12 18 32 25 44 6 12 20 31 30 42 9 11 17 24 17 29 0 5 12
21 28 36 29 28 60 74 69 104 3 9 9 17 14 17 5 0 9 9 9 20 0 11 5 20 10 20 6 0
10 9 10 19 0 11 5 23 10 26 6 3 10 17 10 31 0 13 5 24 10 24 6 0 10 9 10 20 0
11 5 20 10 20 6 0 10 9 10 20 0 11 5 20 10 20 6 0 10 9 10 20 0 11 5 20 10 20
6 0 10 9 10 20 0 11 5 20 10 20 6 0 10 9 10 20 0 11 5 20 10 20 6 0 10 9 10
20 0 11 5 20 10 20 6 0 10 11 10 24 0 14 5 28 10 31 6 3 10 16 10 29 0 12 3
26 7 30 11 11 33 79 33 104 0 12 5 22 10 22 6 0 10 18 10 40 0 22 5 40 10 40
6 0 10 43 10 110 0 107 -1 110 -27 134 -69 61 -89 76 -100 76 -7 0 -13 5 -13
10 0 6 -6 10 -13 10 -7 0 -29 15 -50 33 -35 30 -37 36 -37 89 0 31 5 60 10 63
6 3 10 15 10 26 0 10 5 28 10 39 6 11 15 29 20 40 26 52 41 70 125 155 92 92
109 105 205 152 30 15 57 31 58 35 2 4 17 8 33 8 16 0 29 5 29 10 0 6 18 10
40 10 22 0 49 5 59 12 14 9 52 9 160 0 185 -16 181 -19 181 110 0 59 -4 98
-10 98 -5 0 -10 13 -10 29 0 17 -4 33 -10 36 -5 3 -10 17 -10 31 0 13 -4 24
-10 24 -5 0 -10 9 -10 20 0 11 -4 20 -10 20 -5 0 -10 7 -10 15 0 34 -173 204
-207 205 -7 0 -13 4 -13 9 0 5 -8 11 -17 14 -10 4 -36 13 -58 21 -47 18 -305
23 -305 6 0 -5 -11 -10 -24 -10 -14 0 -28 -4 -31 -10 -3 -5 -15 -10 -26 -10
-10 0 -19 -4 -19 -8 0 -5 -12 -15 -27 -23 -36 -18 -173 -155 -173 -172 0 -7
-9 -19 -20 -27 -11 -8 -20 -22 -20 -32 0 -10 -4 -18 -10 -18 -5 0 -10 -11 -10
-24 0 -14 -4 -28 -10 -31 -5 -3 -10 -19 -10 -36 0 -16 -4 -29 -9 -29 -8 0 -15
-28 -27 -115 -4 -22 -10 -44 -15 -49 -5 -6 -9 -22 -9 -37 0 -32 -32 -59 -70
-59 -36 0 -70 27 -70 56 0 13 -4 24 -10 24 -5 0 -10 18 -10 40 0 22 -4 40 -10
40 -5 0 -10 20 -10 44 0 25 -4 48 -10 51 -5 3 -10 19 -10 36 0 16 -4 29 -10
29 -5 0 -10 13 -10 28 0 16 -8 34 -20 42 -11 8 -20 22 -20 31 0 10 -3 19 -7
21 -5 2 -19 23 -32 47 -28 52 -124 151 -145 151 -8 0 -16 3 -18 8 -1 4 -23 17
-46 30 -38 19 -59 22 -162 22 -69 0 -121 -4 -125 -10z"/>
<path d="M6630 9110 c-8 -5 -27 -10 -42 -10 -15 0 -30 -4 -33 -10 -3 -5 -20
-10 -37 -10 -17 0 -38 -8 -47 -18 -9 -10 -32 -29 -51 -42 -42 -29 -67 -56 -75
-81 -4 -11 -10 -19 -15 -19 -10 0 -20 -49 -13 -67 3 -8 21 -13 43 -13 22 0 42
-4 45 -10 3 -5 19 -10 35 -10 16 0 32 -4 35 -10 3 -5 19 -10 35 -10 16 0 32
-4 35 -10 3 -5 17 -10 31 -10 13 0 24 -4 24 -10 0 -5 9 -10 19 -10 23 0 101
-40 101 -52 0 -4 6 -8 14 -8 7 0 27 -13 44 -30 18 -16 36 -30 41 -30 13 0 89
-79 109 -112 9 -16 20 -28 24 -28 4 0 8 -9 8 -20 0 -11 5 -20 10 -20 6 0 10
-9 10 -20 0 -11 5 -20 10 -20 6 0 10 -9 10 -20 0 -11 5 -29 10 -40 6 -11 15
-29 20 -40 6 -11 10 -29 10 -40 0 -11 5 -20 10 -20 6 0 10 -13 10 -30 0 -16 5
-30 10 -30 6 0 10 -18 10 -39 0 -22 5 -43 10 -46 6 -4 10 -118 10 -311 0 -196
-4 -304 -10 -304 -5 0 -10 -13 -10 -30 0 -16 -4 -30 -10 -30 -5 0 -10 -13 -10
-30 0 -16 -4 -30 -10 -30 -5 0 -10 -7 -10 -16 0 -20 -55 -131 -75 -151 -8 -8
-15 -19 -15 -24 0 -5 -21 -23 -47 -39 -38 -24 -58 -30 -105 -30 l-58 0 0 -80
c0 -47 4 -80 10 -80 6 0 10 -7 10 -15 0 -20 69 -100 126 -145 36 -28 90 -40
187 -40 53 0 108 -5 122 -12 22 -10 25 -17 25 -60 0 -26 -4 -48 -10 -48 -5 0
-10 -11 -10 -24 0 -14 -4 -28 -10 -31 -5 -3 -10 -15 -10 -26 0 -10 -4 -19 -10
-19 -5 0 -10 -9 -10 -20 0 -11 -4 -20 -10 -20 -5 0 -10 -7 -10 -15 0 -9 -25
-41 -56 -72 l-56 -57 -130 2 c-136 3 -158 -3 -158 -39 0 -11 -4 -19 -10 -19
-5 0 -10 -13 -10 -30 0 -16 -4 -30 -10 -30 -6 0 -10 -27 -10 -60 0 -53 2 -60
19 -60 11 0 23 -4 26 -10 3 -5 19 -10 35 -10 16 0 32 -4 35 -10 3 -5 26 -10
50 -10 24 0 47 -4 50 -10 3 -5 24 -10 46 -10 21 0 39 -4 39 -10 0 -5 9 -10 20
-10 11 0 20 -4 20 -10 0 -5 7 -10 15 -10 16 0 41 -20 103 -81 54 -53 62 -65
62 -94 0 -14 4 -25 9 -25 5 0 12 -19 15 -42 5 -39 14 -99 32 -200 3 -21 10
-38 15 -38 5 0 9 -13 9 -30 0 -16 5 -30 10 -30 6 0 10 -13 10 -30 0 -16 5 -30
10 -30 6 0 10 -9 10 -19 0 -11 5 -23 10 -26 6 -3 10 -17 10 -31 0 -13 5 -24
10 -24 6 0 10 -9 10 -20 0 -11 9 -35 20 -55 11 -20 20 -42 20 -50 0 -8 5 -15
10 -15 6 0 10 -9 10 -20 0 -11 5 -20 10 -20 6 0 10 -7 10 -16 0 -26 28 -47 55
-40 14 4 25 10 25 14 0 5 8 17 18 28 22 25 48 69 70 117 9 20 20 37 24 37 5 0
8 9 8 20 0 11 4 20 8 20 4 0 13 21 20 48 8 26 18 55 23 64 5 10 9 25 9 35 0
19 18 79 31 105 5 10 9 42 9 72 0 30 5 58 10 61 6 3 10 31 10 61 0 30 5 54 10
54 6 0 10 11 10 25 0 14 13 39 30 57 17 17 30 36 30 42 0 6 18 22 40 36 22 14
40 28 40 32 0 5 9 8 20 8 11 0 20 5 20 10 0 6 14 10 30 10 17 0 30 5 30 10 0
6 13 10 29 10 17 0 33 5 36 10 3 6 31 10 61 10 30 0 54 5 54 10 0 6 10 10 23
10 13 0 35 6 50 13 26 11 27 15 27 90 0 45 -4 77 -10 77 -5 0 -10 7 -10 15 0
8 -5 26 -12 40 -11 25 -15 26 -57 20 -111 -15 -194 -17 -220 -3 -32 16 -111
94 -111 108 0 6 -9 20 -20 32 -11 12 -20 28 -20 35 0 7 -3 13 -8 13 -4 0 -13
15 -20 33 -7 17 -18 40 -23 49 -5 10 -9 40 -9 66 0 43 3 50 25 60 18 9 39 9
70 2 29 -7 53 -7 70 0 15 6 46 10 71 10 24 0 44 5 44 10 0 6 9 10 19 10 47 0
161 94 161 131 0 10 5 21 10 24 6 3 10 17 10 30 0 13 5 27 10 30 15 9 12 94
-4 111 -10 9 -36 14 -75 14 -34 0 -71 6 -83 13 -35 20 -108 95 -108 112 0 8
-4 15 -10 15 -5 0 -10 9 -10 20 0 11 -4 20 -10 20 -5 0 -10 13 -10 29 0 17 -4
33 -10 36 -5 3 -10 21 -10 40 0 19 -4 37 -10 40 -5 3 -10 24 -10 45 0 21 -4
42 -10 45 -6 4 -10 100 -10 255 0 155 4 251 10 255 6 3 10 24 10 45 0 21 5 42
10 45 6 3 10 19 10 35 0 16 5 32 10 35 6 3 10 17 10 31 0 13 5 24 10 24 6 0
10 6 10 13 0 8 7 29 16 48 53 111 89 179 96 179 4 0 8 6 8 14 0 16 145 166
161 166 5 0 19 9 31 20 12 11 28 20 35 20 7 0 13 3 13 8 0 4 15 13 33 20 38
16 66 28 105 43 15 6 35 15 44 20 10 5 38 9 63 9 56 0 135 21 135 35 0 17 -24
65 -32 65 -5 0 -8 7 -8 16 0 18 -15 34 -52 53 -16 8 -28 18 -28 23 0 4 -6 8
-13 8 -7 0 -23 9 -35 20 -12 11 -28 20 -37 20 -8 0 -15 5 -15 10 0 6 -9 10
-20 10 -11 0 -20 5 -20 10 0 6 -11 10 -24 10 -14 0 -28 5 -31 10 -4 6 -57 10
-125 10 -68 0 -121 -4 -125 -10 -3 -5 -17 -10 -31 -10 -13 0 -24 -4 -24 -10 0
-5 -13 -10 -30 -10 -16 0 -30 -4 -30 -10 0 -5 -6 -10 -14 -10 -17 0 -100 -42
-104 -52 -2 -5 -10 -8 -17 -8 -14 0 -185 -163 -185 -177 0 -4 -14 -24 -30 -43
-16 -19 -30 -43 -30 -52 0 -9 -4 -20 -10 -23 -5 -3 -10 -15 -10 -26 0 -10 -4
-27 -9 -37 -21 -42 -30 -70 -36 -112 -3 -25 -8 -64 -11 -87 -3 -24 -10 -43
-15 -43 -5 0 -9 -7 -9 -16 0 -21 -52 -64 -77 -64 -16 0 -63 48 -63 64 0 9 -4
16 -10 16 -5 0 -10 18 -10 40 0 22 -4 40 -10 40 -6 0 -10 27 -10 60 0 33 -4
60 -10 60 -5 0 -10 11 -10 24 0 14 -4 28 -10 31 -5 3 -10 15 -10 26 0 10 -4
19 -9 19 -5 0 -11 8 -14 18 -9 29 -40 75 -69 103 -16 15 -28 32 -28 38 0 14
-74 88 -120 121 -19 13 -37 27 -40 30 -3 3 -16 11 -29 18 -13 8 -39 22 -58 33
-18 10 -42 19 -53 19 -11 0 -20 5 -20 10 0 6 -15 10 -34 10 -19 0 -38 5 -41
10 -8 13 -195 13 -215 0z"/>
<path d="M3485 8850 c-3 -5 -19 -10 -35 -10 -54 0 -146 -68 -179 -133 -8 -15
-18 -27 -23 -27 -4 0 -8 -9 -8 -20 0 -11 -4 -20 -10 -20 -6 0 -10 -76 -10
-209 0 -129 4 -212 10 -216 6 -3 10 -22 10 -41 0 -19 5 -34 10 -34 6 0 10 -11
10 -25 0 -14 5 -34 10 -45 6 -11 15 -29 20 -40 6 -11 10 -31 10 -45 0 -14 4
-25 9 -25 5 0 12 -24 15 -52 12 -111 18 -148 27 -148 5 0 9 -13 9 -28 0 -15 4
-32 9 -37 5 -6 12 -35 15 -65 11 -113 18 -155 27 -165 13 -13 12 -285 -1 -285
-5 0 -10 -13 -10 -30 0 -16 -4 -30 -10 -30 -5 0 -10 -22 -10 -49 0 -28 -4 -53
-10 -56 -5 -3 -10 -17 -10 -31 0 -13 -4 -24 -10 -24 -5 0 -10 -13 -10 -30 0
-16 -4 -30 -10 -30 -5 0 -10 -9 -10 -20 0 -11 -4 -20 -10 -20 -5 0 -10 -9 -10
-20 0 -11 -4 -20 -10 -20 -5 0 -10 -7 -10 -15 0 -9 -16 -31 -35 -51 -19 -19
-35 -38 -35 -43 0 -4 -20 -29 -45 -54 l-45 -47 0 -181 c0 -178 0 -180 -25
-204 -13 -14 -31 -25 -40 -25 -8 0 -15 -4 -15 -10 0 -5 -13 -10 -30 -10 -16 0
-30 -4 -30 -10 0 -5 -11 -10 -24 -10 -14 0 -28 -4 -31 -10 -3 -5 -15 -10 -26
-10 -10 0 -19 -4 -19 -10 0 -5 -13 -10 -29 -10 -17 0 -33 -4 -36 -10 -3 -5
-17 -10 -31 -10 -13 0 -24 -4 -24 -10 0 -5 -13 -10 -30 -10 -16 0 -30 -4 -30
-10 0 -5 -13 -10 -30 -10 -16 0 -30 -4 -30 -10 0 -5 -13 -10 -30 -10 -16 0
-30 -4 -30 -10 0 -5 -11 -10 -24 -10 -14 0 -28 -4 -31 -10 -3 -5 -19 -10 -36
-10 -16 0 -29 -4 -29 -9 0 -5 -16 -12 -35 -15 -19 -3 -51 -9 -70 -12 -19 -3
-35 -10 -35 -15 0 -5 -13 -9 -30 -9 -16 0 -30 -4 -30 -10 0 -5 -13 -10 -30
-10 -16 0 -30 -4 -30 -10 0 -5 -11 -10 -24 -10 -14 0 -28 -4 -31 -10 -3 -5
-19 -10 -36 -10 -16 0 -29 -4 -29 -10 0 -5 -13 -10 -30 -10 -16 0 -30 -4 -30
-10 0 -5 -13 -10 -30 -10 -16 0 -30 -4 -30 -10 0 -5 -13 -10 -30 -10 -16 0
-30 -4 -30 -10 0 -5 -13 -10 -30 -10 -16 0 -30 -4 -30 -10 0 -5 -9 -10 -19
-10 -11 0 -23 -4 -26 -10 -3 -5 -19 -10 -35 -10 -16 0 -32 -4 -35 -10 -3 -5
-19 -10 -36 -10 -16 0 -29 -4 -29 -10 0 -5 -13 -10 -30 -10 -16 0 -30 -4 -30
-10 0 -5 -13 -10 -30 -10 -16 0 -30 -4 -30 -10 0 -5 -13 -10 -30 -10 -16 0
-30 -4 -30 -10 0 -5 -13 -10 -30 -10 -16 0 -30 -4 -30 -10 0 -5 -13 -10 -30
-10 -16 0 -30 -4 -30 -10 0 -5 -9 -10 -20 -10 -11 0 -20 -4 -20 -10 0 -5 -13
-10 -29 -10 -17 0 -33 -4 -36 -10 -3 -5 -17 -10 -30 -10 -13 0 -27 -4 -30 -10
-3 -5 -22 -10 -41 -10 -19 0 -34 -4 -34 -10 0 -5 -11 -10 -24 -10 -14 0 -28
-4 -31 -10 -3 -5 -19 -10 -36 -10 -16 0 -29 -4 -29 -10 0 -5 -9 -10 -19 -10
-11 0 -23 -4 -26 -10 -3 -5 -17 -10 -31 -10 -13 0 -24 -4 -24 -10 0 -5 -9 -10
-19 -10 -11 0 -23 -4 -26 -10 -3 -5 -17 -10 -31 -10 -13 0 -24 -4 -24 -10 0
-5 -13 -10 -30 -10 -23 0 -30 5 -30 19 0 10 8 21 18 24 23 8 76 40 80 50 2 4
12 7 23 7 10 0 19 5 19 10 0 6 9 10 20 10 11 0 20 3 20 8 0 4 17 15 38 24 20
10 51 25 67 34 17 9 39 22 50 27 70 36 101 53 105 57 3 3 17 11 33 19 15 8 27
18 27 23 0 4 7 8 15 8 9 0 25 9 37 20 12 11 28 20 35 20 7 0 13 5 13 10 0 6 7
10 15 10 9 0 25 9 37 20 12 11 28 20 35 20 7 0 13 5 13 10 0 6 7 10 15 10 9 0
25 9 37 20 12 11 28 20 35 20 7 0 13 5 13 10 0 6 7 10 15 10 9 0 25 9 37 20
12 11 28 20 35 20 7 0 13 5 13 10 0 6 6 10 13 10 7 0 23 9 35 20 12 11 28 20
36 20 8 0 16 3 18 8 4 9 57 41 81 49 9 3 17 9 17 14 0 5 9 9 20 9 11 0 20 5
20 10 0 6 9 10 20 10 11 0 20 5 20 10 0 6 7 10 15 10 9 0 25 9 37 20 12 11 28
20 35 20 7 0 13 5 13 10 0 6 9 10 20 10 11 0 20 5 20 10 0 6 6 10 13 10 7 0
23 9 35 20 12 11 28 20 37 20 8 0 15 5 15 10 0 6 9 10 20 10 11 0 20 5 20 10
0 6 7 10 15 10 9 0 25 9 37 20 12 11 28 20 35 20 7 0 13 5 13 10 0 6 9 10 20
10 11 0 20 4 20 9 0 5 14 14 30 21 17 7 30 16 30 21 0 5 9 9 20 9 11 0 20 5
20 10 0 6 7 10 15 10 9 0 25 9 37 20 12 11 28 20 35 20 7 0 13 5 13 10 0 6 9
10 20 10 11 0 20 4 20 9 0 5 14 14 30 21 17 7 30 16 30 21 0 5 9 9 19 9 11 0
21 3 23 8 4 9 57 41 81 49 9 3 17 9 17 14 0 5 7 9 15 9 9 0 25 9 37 20 12 11
28 20 35 20 7 0 13 5 13 10 0 6 9 10 20 10 11 0 20 5 20 10 0 6 9 10 20 10 11
0 20 3 20 8 0 4 17 18 38 31 20 13 57 49 82 82 25 32 48 58 53 59 4 0 7 9 7
20 0 11 5 20 10 20 6 0 10 6 10 13 0 6 9 23 20 37 11 14 20 35 20 48 0 12 5
22 10 22 6 0 10 15 10 34 0 19 5 38 10 41 13 8 13 377 1 419 -5 17 -14 49 -19
71 -21 81 -36 130 -44 140 -4 5 -8 19 -8 32 0 13 -4 23 -10 23 -5 0 -10 14
-10 30 0 17 -4 30 -10 30 -5 0 -10 9 -10 20 0 11 -4 28 -9 38 -15 30 -28 66
-39 107 -6 22 -15 58 -21 80 -5 22 -13 72 -16 110 -12 151 -22 185 -56 185
-33 0 -99 -132 -99 -198 0 -12 -4 -22 -10 -22 -6 0 -10 -58 -10 -154 0 -93 4
-157 10 -161 6 -3 10 -24 10 -46 0 -21 5 -39 10 -39 6 0 10 -13 10 -29 0 -17
5 -33 10 -36 6 -3 10 -17 10 -30 0 -13 5 -27 10 -30 6 -3 10 -19 10 -35 0 -16
4 -31 9 -34 23 -15 38 -205 20 -261 -16 -48 -31 -65 -58 -65 -12 0 -30 -6 -41
-12 -16 -10 -24 -10 -40 0 -11 6 -31 12 -44 12 -14 0 -28 5 -31 10 -3 6 -15
10 -26 10 -10 0 -27 4 -37 9 -44 22 -94 33 -105 22 -6 -6 -17 -11 -24 -11 -7
0 -27 -13 -45 -30 -17 -16 -35 -30 -40 -30 -6 0 -22 -13 -36 -28 -15 -15 -43
-39 -62 -52 -19 -14 -65 -55 -102 -92 -37 -38 -71 -68 -77 -68 -5 0 -31 -21
-58 -48 -26 -26 -64 -58 -83 -72 -19 -13 -55 -45 -80 -70 -25 -25 -61 -57 -80
-70 -19 -14 -63 -52 -96 -86 -34 -33 -79 -74 -100 -90 -21 -16 -74 -64 -118
-106 -43 -43 -83 -78 -88 -78 -5 0 -30 -21 -56 -48 -26 -26 -63 -59 -82 -72
-19 -13 -51 -40 -70 -60 -19 -20 -51 -47 -70 -60 -19 -14 -54 -43 -76 -66 -23
-23 -59 -54 -80 -70 -22 -16 -68 -58 -104 -94 -36 -36 -81 -77 -100 -91 -19
-14 -66 -56 -105 -93 -38 -36 -73 -66 -77 -66 -4 0 -58 -49 -119 -110 -62 -60
-116 -110 -121 -110 -5 0 -33 -24 -62 -54 -29 -29 -71 -66 -92 -82 -54 -41
-224 -215 -224 -230 0 -7 -6 -14 -12 -17 -9 -3 -7 -7 6 -12 11 -5 27 -3 37 3
10 7 35 12 54 12 19 0 35 5 35 10 0 6 15 10 34 10 19 0 38 4 41 10 3 6 19 10
36 10 16 0 29 5 29 10 0 6 14 10 30 10 17 0 30 5 30 10 0 6 14 10 30 10 17 0
30 5 30 10 0 6 14 10 30 10 17 0 30 5 30 10 0 6 13 10 29 10 17 0 33 5 36 10
3 6 17 10 30 10 13 0 27 5 30 10 3 6 17 10 30 10 13 0 27 5 30 10 3 6 17 10
31 10 13 0 24 5 24 10 0 6 14 10 30 10 17 0 30 5 30 10 0 6 11 10 24 10 14 0
28 5 31 10 3 6 16 10 29 10 12 0 26 3 30 7 11 11 79 33 104 33 12 0 22 5 22
10 0 6 11 10 25 10 14 0 33 4 43 9 29 15 87 31 110 31 12 0 22 5 22 10 0 6 9
10 19 10 11 0 23 5 26 10 3 6 22 10 41 10 19 0 34 5 34 10 0 6 11 10 24 10 14
0 28 5 31 10 3 6 19 10 36 10 16 0 29 5 29 10 0 6 14 10 30 10 17 0 30 5 30
10 0 6 14 10 30 10 17 0 30 5 30 10 0 6 9 10 19 10 11 0 23 5 26 10 3 6 22 10
41 10 19 0 34 5 34 10 0 6 14 10 30 10 17 0 30 5 30 10 0 6 14 10 30 10 17 0
30 5 30 10 0 6 11 10 24 10 14 0 28 5 31 10 3 6 19 10 36 10 16 0 29 5 29 10
0 6 14 10 30 10 17 0 30 5 30 10 0 6 13 10 29 10 17 0 33 5 36 10 3 6 17 10
31 10 13 0 33 5 44 10 11 6 29 14 40 20 11 6 31 10 44 10 14 0 28 5 31 10 3 6
15 10 26 10 10 0 19 5 19 10 0 6 14 10 30 10 17 0 30 5 30 10 0 6 14 10 30 10
17 0 30 5 30 10 0 6 14 10 30 10 17 0 30 5 30 10 0 6 11 10 25 10 14 0 33 4
43 9 31 16 149 51 171 51 11 0 21 5 21 10 0 6 11 10 24 10 14 0 28 5 31 10 3
6 19 10 36 10 16 0 29 5 29 10 0 6 14 10 30 10 17 0 30 5 30 10 0 6 14 10 30
10 17 0 30 5 30 10 0 6 14 10 30 10 17 0 30 5 30 10 0 6 14 10 30 10 17 0 30
5 30 10 0 6 13 10 29 10 17 0 33 5 36 10 3 6 15 10 26 10 19 0 54 17 74 35 23
23 41 76 52 160 6 42 31 72 69 81 24 6 155 0 219 -11 38 -6 68 -16 107 -36 10
-5 27 -9 38 -9 11 0 30 -5 43 -12 47 -24 57 -28 72 -28 8 0 15 -4 15 -10 0 -5
9 -10 20 -10 11 0 20 -4 20 -10 0 -5 9 -10 19 -10 22 0 174 -78 179 -91 2 -5
10 -9 18 -9 15 0 264 -245 264 -260 0 -6 18 -29 40 -51 22 -23 40 -48 40 -55
0 -8 3 -14 8 -14 8 0 32 -49 32 -67 0 -7 3 -13 8 -13 4 0 13 -15 20 -32 7 -18
18 -41 23 -50 5 -10 9 -30 9 -44 0 -36 -77 -114 -114 -114 -14 0 -26 -4 -26
-10 0 -5 -11 -10 -24 -10 -14 0 -28 -4 -31 -10 -3 -5 -15 -10 -26 -10 -10 0
-29 -5 -42 -12 -50 -25 -58 -28 -97 -28 -22 0 -40 -4 -40 -10 0 -5 -13 -10
-30 -10 -16 0 -30 -4 -30 -10 0 -5 -10 -10 -23 -10 -43 0 -97 -76 -97 -136 0
-13 -4 -24 -10 -24 -5 0 -10 -7 -10 -15 0 -8 -4 -23 -9 -33 -5 -9 -15 -38 -23
-64 -7 -27 -16 -48 -20 -48 -4 0 -8 -10 -8 -23 0 -13 -3 -27 -7 -31 -11 -11
-33 -79 -33 -103 0 -13 -4 -23 -10 -23 -5 0 -10 -13 -10 -30 0 -16 -4 -30 -10
-30 -5 0 -10 -13 -10 -30 0 -16 -4 -30 -10 -30 -5 0 -10 -13 -10 -30 0 -16 -4
-30 -10 -30 -5 0 -10 -13 -10 -30 0 -16 -4 -30 -10 -30 -5 0 -10 -13 -10 -30
0 -16 -4 -30 -10 -30 -5 0 -10 -13 -10 -30 0 -16 -4 -30 -10 -30 -5 0 -10 -13
-10 -30 0 -16 -4 -30 -10 -30 -5 0 -10 -11 -10 -25 0 -14 -4 -33 -9 -43 -5 -9
-15 -37 -22 -62 -7 -25 -16 -49 -21 -55 -4 -5 -8 -19 -8 -31 0 -13 -5 -26 -10
-29 -6 -3 -10 -17 -10 -30 0 -13 -4 -27 -10 -30 -5 -3 -10 -17 -10 -31 0 -13
-4 -24 -10 -24 -5 0 -10 -13 -10 -30 0 -16 -3 -30 -8 -30 -9 0 -32 -72 -32
-100 0 -11 -4 -20 -10 -20 -5 0 -10 -9 -10 -19 0 -11 -5 -23 -10 -26 -6 -3
-10 -22 -10 -41 0 -19 -3 -34 -8 -34 -9 0 -32 -72 -32 -100 0 -11 -4 -20 -10
-20 -5 0 -10 -13 -10 -30 0 -16 -4 -30 -10 -30 -5 0 -10 -13 -10 -30 0 -16 -3
-30 -8 -30 -9 0 -32 -72 -32 -100 0 -11 -4 -20 -10 -20 -5 0 -10 -11 -10 -24
0 -14 -4 -28 -10 -31 -5 -3 -10 -19 -10 -36 0 -16 -4 -29 -10 -29 -5 0 -10
-11 -10 -24 0 -14 -4 -28 -10 -31 -5 -3 -10 -19 -10 -36 0 -16 -4 -29 -10 -29
-5 0 -10 -7 -10 -15 0 -8 -4 -23 -9 -33 -5 -9 -15 -38 -23 -64 -7 -27 -16 -48
-20 -48 -4 0 -8 -13 -8 -30 0 -16 -4 -30 -10 -30 -5 0 -10 -13 -10 -30 0 -16
-4 -30 -10 -30 -5 0 -10 -13 -10 -30 0 -16 -4 -30 -10 -30 -5 0 -10 -13 -10
-30 0 -16 -4 -30 -10 -30 -5 0 -10 -13 -10 -30 0 -16 -4 -30 -10 -30 -5 0 -10
-13 -10 -30 0 -16 -4 -30 -10 -30 -5 0 -10 -13 -10 -30 0 -16 -4 -30 -10 -30
-5 0 -10 -13 -10 -30 0 -16 -4 -30 -10 -30 -5 0 -10 -11 -10 -24 0 -14 -4 -28
-10 -31 -5 -3 -10 -17 -10 -30 0 -13 -5 -27 -10 -30 -5 -3 -10 -19 -10 -36 0
-16 -4 -29 -10 -29 -5 0 -10 -15 -10 -34 0 -19 -5 -38 -10 -41 -6 -3 -10 -17
-10 -30 0 -13 -4 -27 -10 -30 -5 -3 -10 -19 -10 -36 0 -16 -4 -29 -10 -29 -5
0 -10 -13 -10 -30 0 -16 -4 -30 -10 -30 -5 0 -10 -13 -10 -30 0 -16 -4 -30
-10 -30 -5 0 -10 -13 -10 -30 0 -16 -4 -30 -10 -30 -5 0 -10 -13 -10 -30 0
-16 -4 -30 -10 -30 -5 0 -10 -13 -10 -30 0 -16 -4 -30 -10 -30 -5 0 -10 -11
-10 -25 0 -14 -4 -33 -9 -43 -5 -9 -14 -37 -21 -62 -7 -25 -16 -53 -21 -62
-16 -31 -10 -48 16 -48 19 0 64 39 188 162 89 90 173 179 187 198 13 19 31 42
40 50 9 8 27 31 40 50 14 19 63 73 110 120 47 47 96 101 110 120 13 19 31 42
40 50 9 8 27 31 40 50 14 19 63 73 110 120 47 47 110 114 140 150 30 36 62 72
70 80 8 8 40 44 70 80 30 36 75 85 100 110 25 25 57 61 70 80 13 19 36 46 50
60 14 14 37 41 50 60 14 19 57 68 97 108 40 40 73 76 73 80 0 5 28 37 61 73
34 35 73 79 88 98 14 19 65 75 114 124 48 50 87 94 87 99 0 5 21 30 48 56 26
26 59 63 72 82 13 19 45 55 70 80 25 25 57 61 70 80 13 19 50 61 82 92 32 31
58 61 58 66 0 5 35 45 78 89 44 44 90 96 103 114 13 19 35 45 49 59 14 14 31
35 38 48 14 26 16 88 2 97 -5 3 -10 17 -10 30 0 13 -4 27 -10 30 -5 3 -10 17
-10 31 0 13 -4 24 -10 24 -5 0 -10 15 -10 34 0 19 -4 37 -8 40 -12 7 -22 161
-15 215 7 52 59 111 98 111 14 0 25 3 25 8 0 9 72 32 99 32 11 0 23 5 26 10 3
6 21 10 39 10 17 0 37 5 43 11 16 16 510 16 526 0 6 -6 28 -11 48 -11 21 0 41
-4 44 -10 3 -6 22 -10 41 -10 19 0 34 -4 34 -10 0 -5 11 -10 24 -10 14 0 28
-4 31 -10 3 -5 15 -10 26 -10 10 0 19 -4 19 -10 0 -5 9 -10 20 -10 11 0 35 -9
53 -19 19 -11 45 -25 58 -33 13 -7 31 -21 40 -30 9 -10 21 -18 26 -18 6 0 23
-12 39 -28 16 -15 45 -38 64 -52 57 -39 160 -145 160 -163 0 -9 5 -17 10 -17
18 0 11 -117 -9 -153 -11 -19 -25 -45 -33 -58 -7 -13 -66 -77 -130 -142 -65
-65 -118 -124 -118 -132 0 -7 -5 -15 -12 -17 -15 -5 -13 -131 2 -136 6 -2 10
-26 10 -52 0 -27 5 -52 10 -55 6 -3 10 -24 10 -45 0 -21 5 -42 10 -45 6 -3 10
-28 10 -55 0 -27 5 -52 10 -55 6 -3 10 -23 10 -44 0 -20 4 -41 9 -46 5 -6 12
-32 15 -60 8 -81 17 -129 26 -150 5 -11 11 -38 14 -60 10 -79 18 -115 27 -121
5 -3 9 -27 9 -54 0 -27 5 -52 10 -55 6 -3 10 -28 10 -54 0 -26 4 -51 9 -56 5
-6 12 -35 15 -65 12 -117 17 -156 26 -175 9 -22 18 -65 27 -133 3 -23 9 -42
14 -42 5 0 9 -22 9 -50 0 -27 5 -50 10 -50 6 0 10 -22 10 -50 0 -27 5 -50 10
-50 6 0 10 -20 10 -44 0 -25 5 -48 10 -51 6 -3 10 -28 10 -56 0 -27 5 -49 10
-49 6 0 10 -18 10 -39 0 -22 5 -43 10 -46 6 -3 10 -26 10 -50 0 -24 5 -47 10
-50 6 -3 10 -26 10 -50 0 -24 5 -47 10 -50 6 -3 10 -28 10 -54 0 -26 4 -51 9
-57 8 -8 13 -31 27 -137 3 -23 9 -51 14 -62 10 -23 19 -64 26 -115 3 -19 9
-44 14 -55 5 -11 12 -45 15 -75 14 -142 17 -160 26 -160 5 0 9 -19 9 -43 0
-24 4 -47 9 -53 5 -5 12 -31 15 -59 3 -27 10 -79 16 -115 6 -36 13 -89 16
-117 3 -29 10 -53 15 -53 5 0 9 -18 9 -40 0 -22 5 -40 10 -40 6 0 10 -18 10
-40 0 -22 5 -40 10 -40 6 0 10 -18 10 -40 0 -22 5 -40 10 -40 6 0 10 -18 10
-39 0 -22 5 -43 10 -46 6 -3 10 -21 10 -40 0 -19 5 -37 10 -40 6 -3 10 -24 10
-45 0 -21 5 -42 10 -45 6 -3 10 -17 10 -31 0 -13 4 -32 9 -42 5 -9 20 -52 33
-95 16 -56 27 -77 38 -75 8 2 16 14 18 28 2 14 7 34 12 45 10 23 19 64 27 118
3 20 9 40 14 43 5 3 9 27 9 54 0 27 4 52 10 55 6 3 10 26 10 51 0 24 5 44 10
44 6 0 10 22 10 49 0 28 4 52 9 55 9 6 15 37 27 136 3 25 10 49 15 54 5 6 9
25 9 42 0 18 4 36 10 39 6 3 10 26 10 50 0 24 5 47 10 50 6 3 10 24 10 45 0
21 4 42 10 45 6 3 10 26 10 51 0 24 4 44 9 44 5 0 11 19 14 42 9 67 18 111 27
133 5 11 11 36 14 55 3 19 10 60 16 90 6 30 13 73 16 95 3 22 9 49 14 60 8 19
13 42 26 140 4 22 10 44 15 49 5 6 9 29 9 53 0 24 5 43 10 43 6 0 10 24 10 54
0 30 5 58 10 61 6 3 10 26 10 50 0 24 5 47 10 50 6 3 10 26 10 50 0 24 4 47
10 50 5 3 10 24 10 45 0 21 5 42 10 45 6 3 10 26 10 51 0 24 5 44 10 44 6 0
10 23 10 50 0 28 5 50 10 50 6 0 10 23 10 50 0 28 5 50 10 50 6 0 10 18 10 40
0 22 5 40 10 40 6 0 10 23 10 50 0 28 5 50 10 50 6 0 10 20 10 44 0 25 4 48
10 51 6 3 10 26 10 50 0 24 5 47 10 50 6 3 10 24 10 46 0 21 5 39 10 39 6 0
10 20 10 44 0 25 5 48 10 51 6 3 10 28 10 56 0 27 5 49 10 49 6 0 10 24 10 54
0 30 5 58 10 61 6 3 10 24 10 45 0 21 5 42 10 45 6 3 10 26 10 51 0 24 5 44
10 44 6 0 10 20 10 44 0 25 5 48 10 51 6 3 10 28 10 56 0 27 5 49 10 49 6 0
10 23 10 50 0 28 5 50 10 50 6 0 10 23 10 50 0 28 5 50 10 50 6 0 10 23 10 50
0 28 5 50 10 50 14 0 13 86 -1 112 -6 11 -72 82 -148 157 -153 153 -181 196
-181 277 0 30 4 54 8 54 4 0 16 13 25 29 23 38 83 100 127 131 19 13 42 32 51
42 9 10 21 18 26 18 5 0 18 8 29 18 19 16 31 23 87 54 12 7 24 15 27 18 10 12
132 70 146 70 8 0 14 5 14 10 0 6 13 10 29 10 17 0 33 5 36 10 3 6 22 10 41
10 19 0 34 5 34 10 0 6 15 10 33 10 18 0 37 4 43 9 22 22 359 31 479 12 39 -6
91 -13 118 -17 26 -3 47 -10 47 -15 0 -5 11 -9 25 -9 14 0 33 -4 43 -9 9 -5
38 -15 65 -23 26 -7 47 -16 47 -20 0 -4 7 -8 16 -8 20 0 44 -24 44 -44 0 -9 5
-16 10 -16 6 0 10 -37 10 -90 0 -53 -4 -90 -10 -90 -5 0 -10 -6 -10 -14 0 -12
-14 -44 -51 -118 -5 -10 -9 -25 -9 -33 0 -8 -4 -15 -10 -15 -5 0 -10 -11 -10
-24 0 -14 -4 -28 -10 -31 -13 -8 -13 -105 0 -105 6 0 10 -7 10 -15 0 -8 60
-75 133 -148 73 -74 147 -151 163 -173 16 -21 45 -55 64 -74 20 -19 47 -51 60
-70 13 -19 46 -56 72 -82 27 -26 48 -51 48 -56 0 -5 27 -37 60 -72 33 -35 60
-67 60 -72 0 -5 18 -27 40 -48 22 -21 40 -43 40 -48 0 -5 18 -28 40 -51 22
-22 40 -45 40 -50 0 -5 49 -58 108 -119 60 -60 120 -125 133 -143 13 -19 48
-59 79 -89 31 -30 66 -70 79 -88 13 -18 77 -88 142 -155 65 -67 119 -125 119
-130 0 -4 32 -39 70 -77 39 -38 70 -73 70 -78 0 -5 17 -27 38 -48 20 -22 48
-55 62 -74 14 -19 37 -48 52 -64 16 -16 28 -33 28 -38 0 -5 21 -30 48 -56 26
-26 59 -63 72 -82 13 -19 36 -46 50 -60 14 -14 36 -40 50 -59 13 -18 86 -97
162 -173 76 -77 138 -144 138 -149 0 -6 53 -64 118 -130 64 -66 121 -127 125
-135 17 -29 37 -15 37 26 0 22 -4 40 -10 40 -5 0 -10 14 -10 30 0 17 -4 30
-10 30 -5 0 -10 13 -10 29 0 17 -4 33 -10 36 -5 3 -10 17 -10 30 0 13 -4 27
-10 30 -5 3 -10 19 -10 35 0 16 -4 32 -10 35 -5 3 -10 19 -10 36 0 16 -4 29
-10 29 -5 0 -10 14 -10 30 0 17 -4 30 -10 30 -5 0 -10 14 -10 30 0 17 -4 30
-10 30 -5 0 -10 11 -10 25 0 14 -4 33 -9 43 -5 9 -15 37 -22 62 -7 25 -16 49
-21 55 -4 5 -8 19 -8 32 0 13 -4 23 -8 23 -5 0 -15 22 -22 50 -7 27 -17 50
-22 50 -4 0 -8 14 -8 30 0 17 -4 30 -10 30 -5 0 -10 11 -10 24 0 14 -4 28 -10
31 -5 3 -10 16 -10 29 0 12 -3 26 -7 30 -11 11 -33 79 -33 104 0 12 -4 22 -10
22 -5 0 -10 14 -10 30 0 17 -4 30 -10 30 -5 0 -10 14 -10 30 0 17 -4 30 -10
30 -5 0 -10 15 -10 34 0 19 -4 38 -10 41 -5 3 -10 19 -10 36 0 16 -4 29 -10
29 -5 0 -10 14 -10 30 0 17 -4 30 -10 30 -5 0 -10 13 -10 29 0 17 -4 33 -10
36 -5 3 -10 17 -10 30 0 13 -4 27 -10 30 -5 3 -10 19 -10 35 0 16 -4 32 -10
35 -5 3 -10 19 -10 36 0 16 -4 29 -10 29 -5 0 -10 11 -10 24 0 14 -4 28 -10
31 -5 3 -10 17 -10 30 0 13 -4 27 -10 30 -5 3 -10 17 -10 30 0 13 -4 27 -10
30 -5 3 -10 17 -10 30 0 13 -4 27 -10 30 -5 3 -10 16 -10 29 0 12 -4 26 -8 31
-5 6 -14 30 -21 55 -7 25 -17 53 -22 62 -5 10 -9 27 -9 37 0 11 -4 23 -10 26
-5 3 -10 15 -10 26 0 10 -4 27 -9 37 -15 30 -28 66 -41 112 -6 25 -16 53 -21
62 -5 10 -9 27 -9 37 0 11 -4 23 -10 26 -5 3 -10 17 -10 30 0 13 -4 27 -10 30
-5 3 -10 19 -10 36 0 16 -4 29 -10 29 -5 0 -10 11 -10 24 0 14 -4 28 -10 31
-5 3 -10 15 -10 26 0 10 -5 29 -12 42 -24 48 -28 57 -28 77 0 11 -4 28 -9 38
-15 30 -28 66 -41 112 -6 25 -16 53 -21 62 -5 10 -9 27 -9 37 0 11 -4 22 -8
25 -4 3 -14 28 -22 56 -8 28 -18 53 -22 56 -4 3 -8 16 -8 29 0 13 -4 27 -10
30 -5 3 -10 17 -10 30 0 13 -4 27 -10 30 -5 3 -10 17 -10 30 0 13 -4 27 -10
30 -5 3 -10 19 -10 35 0 16 -4 32 -10 35 -5 3 -10 19 -10 35 0 16 -4 32 -10
35 -5 3 -10 17 -10 31 0 13 -4 24 -10 24 -5 0 -10 8 -11 18 0 9 -13 39 -27 66
-24 44 -33 51 -77 63 -27 8 -64 18 -81 24 -17 5 -42 9 -57 9 -14 0 -28 4 -31
8 -3 4 -28 14 -55 22 -28 7 -51 17 -51 22 0 4 -9 8 -20 8 -11 0 -20 5 -20 10
0 6 -7 10 -16 10 -24 0 -95 41 -131 77 -29 28 -33 37 -33 86 0 31 4 59 10 62
6 3 10 17 10 31 0 13 3 24 8 24 4 0 18 18 32 40 14 22 28 40 32 40 4 0 10 9
13 20 4 11 17 32 31 45 13 13 24 28 24 34 0 14 152 165 188 187 18 10 32 22
32 26 0 4 7 8 16 8 9 0 24 8 33 18 9 10 36 29 61 43 25 13 46 27 48 32 2 4 12
7 23 7 10 0 19 5 19 10 0 6 9 10 20 10 11 0 20 5 20 10 0 6 9 10 20 10 11 0
20 5 20 10 0 6 9 10 20 10 11 0 20 5 20 10 0 6 7 10 15 10 8 0 23 4 33 9 74
37 106 51 118 51 8 0 14 5 14 10 0 6 9 10 19 10 11 0 23 5 26 10 3 6 17 10 30
10 13 0 27 5 30 10 3 6 19 10 35 10 16 0 32 5 35 10 8 13 122 13 130 0 3 -5
16 -10 29 -10 46 0 106 -108 106 -190 0 -67 34 -110 85 -110 8 0 15 -4 15 -10
0 -5 13 -10 29 -10 17 0 33 -4 36 -10 3 -5 17 -10 31 -10 13 0 24 -4 24 -10 0
-5 13 -10 29 -10 17 0 33 -4 36 -10 3 -5 17 -10 31 -10 13 0 24 -4 24 -10 0
-5 9 -10 20 -10 11 0 20 -4 20 -10 0 -5 14 -10 30 -10 17 0 30 -4 30 -10 0 -5
13 -10 29 -10 17 0 33 -4 36 -10 3 -5 22 -10 41 -10 19 0 34 -4 34 -10 0 -5
13 -10 29 -10 17 0 33 -4 36 -10 3 -5 17 -10 31 -10 13 0 33 -4 44 -10 11 -5
29 -14 40 -20 11 -5 29 -10 40 -10 11 0 28 -4 38 -9 29 -15 65 -28 112 -42 25
-7 49 -16 54 -21 6 -4 22 -8 37 -8 15 0 31 -4 34 -10 3 -5 15 -10 26 -10 10 0
19 -4 19 -10 0 -5 14 -10 30 -10 17 0 30 -4 30 -10 0 -5 14 -10 30 -10 17 0
30 -4 30 -10 0 -5 14 -10 30 -10 17 0 30 -4 30 -10 0 -5 14 -10 30 -10 17 0
30 -4 30 -10 0 -5 14 -10 30 -10 17 0 30 -4 30 -10 0 -5 14 -10 30 -10 17 0
30 -4 30 -10 0 -5 14 -10 30 -10 17 0 30 -4 30 -10 0 -5 13 -10 29 -10 17 0
33 -5 36 -10 3 -6 19 -10 35 -10 16 0 32 -4 35 -10 3 -5 15 -10 26 -10 10 0
19 -4 19 -10 0 -5 14 -10 30 -10 17 0 30 -4 30 -10 0 -5 14 -10 30 -10 17 0
30 -4 30 -10 0 -5 14 -10 30 -10 17 0 30 -4 30 -10 0 -5 14 -10 30 -10 17 0
30 -4 30 -10 0 -5 14 -10 30 -10 17 0 30 -4 30 -10 0 -5 14 -10 30 -10 17 0
30 -4 30 -10 0 -5 14 -10 30 -10 17 0 30 -4 30 -10 0 -5 14 -10 30 -10 17 0
30 -4 30 -10 0 -5 14 -10 30 -10 17 0 30 -4 30 -10 0 -5 13 -10 29 -10 17 0
33 -4 36 -10 3 -5 17 -10 31 -10 13 0 33 -4 44 -10 11 -5 29 -14 40 -20 11 -5
33 -10 50 -10 16 0 30 -4 30 -10 0 -5 11 -10 24 -10 14 0 28 -4 31 -10 3 -5
17 -10 30 -10 13 0 27 -4 30 -10 3 -6 17 -10 30 -10 13 0 27 -4 30 -10 3 -5
17 -10 30 -10 13 0 27 -4 30 -10 3 -6 15 -10 26 -10 19 0 28 -4 76 -28 13 -7
32 -12 42 -12 11 0 23 -4 26 -10 3 -6 17 -10 30 -10 13 0 27 -4 30 -10 3 -5
22 -10 41 -10 19 0 34 -4 34 -10 0 -5 14 -10 30 -10 17 0 30 -4 30 -10 0 -5
14 -10 30 -10 17 0 30 -4 30 -10 0 -5 23 -10 50 -10 28 0 50 2 50 6 0 9 -120
124 -130 124 -5 0 -64 55 -133 123 -68 68 -139 134 -158 148 -19 13 -51 41
-73 61 -21 21 -43 38 -48 38 -5 0 -49 41 -98 90 -49 50 -94 90 -99 90 -5 0
-37 27 -70 60 -34 33 -65 60 -70 60 -5 0 -40 30 -78 68 -38 37 -84 79 -103 94
-19 14 -77 67 -128 117 -52 50 -98 91 -103 91 -5 0 -42 34 -84 75 -41 41 -79
75 -83 75 -5 0 -23 14 -40 30 -18 17 -36 30 -41 30 -5 0 -26 17 -47 38 -22 20
-55 48 -74 62 -19 13 -51 40 -70 60 -19 20 -51 47 -70 60 -19 14 -78 68 -131
120 -52 53 -111 107 -130 120 -19 13 -46 37 -61 52 -14 15 -31 28 -36 28 -6 0
-52 41 -101 90 -50 50 -95 90 -99 90 -5 0 -35 26 -68 58 -33 31 -72 63 -87 71
-15 8 -27 18 -27 23 0 4 -9 8 -19 8 -11 0 -21 4 -23 9 -3 11 -78 -10 -78 -21
0 -5 -13 -8 -30 -8 -16 0 -30 -4 -30 -10 0 -5 -13 -10 -30 -10 -16 0 -30 -4
-30 -10 0 -6 -31 -10 -72 -10 -63 0 -77 3 -101 24 -28 24 -28 25 -23 123 6
125 16 193 27 193 5 0 9 15 9 34 0 19 5 38 10 41 6 3 10 17 10 30 0 13 5 27
10 30 6 3 10 19 10 36 0 16 4 29 9 29 5 0 12 16 15 35 3 19 9 51 12 70 3 19
10 35 15 35 5 0 9 50 9 110 0 67 -4 110 -10 110 -5 0 -10 14 -10 30 0 17 -4
30 -10 30 -5 0 -10 14 -10 30 0 17 -4 30 -10 30 -5 0 -10 7 -10 15 0 8 -9 35
-21 60 -35 74 -73 55 -83 -41 -14 -146 -18 -174 -27 -174 -5 0 -9 -13 -9 -30
0 -16 -4 -30 -10 -30 -5 0 -10 -11 -10 -25 0 -14 -4 -33 -9 -43 -5 -9 -19 -51
-32 -92 -12 -41 -26 -79 -31 -85 -4 -5 -8 -19 -8 -32 0 -13 -4 -23 -10 -23 -5
0 -10 -13 -10 -30 0 -16 -4 -30 -9 -30 -14 0 -23 -82 -27 -277 -3 -123 -1
-183 6 -183 5 0 10 -12 10 -26 0 -26 37 -106 53 -112 4 -2 7 -9 7 -16 0 -27
36 -46 88 -46 28 0 54 5 57 10 3 6 22 10 41 10 19 0 34 5 34 10 0 6 23 10 50
10 28 0 50 5 50 10 0 6 13 10 29 10 17 0 33 5 36 10 3 6 17 10 30 10 13 0 27
5 30 10 11 17 99 12 121 -8 10 -10 35 -29 54 -42 19 -14 69 -59 110 -100 41
-41 91 -86 110 -100 19 -13 65 -55 103 -92 38 -38 73 -68 78 -68 6 0 40 -30
77 -68 37 -37 83 -78 102 -92 19 -13 55 -45 80 -70 25 -25 61 -57 80 -70 19
-13 52 -41 72 -62 20 -21 41 -38 46 -38 5 0 27 -17 48 -38 22 -20 55 -48 74
-62 19 -13 56 -46 82 -72 26 -27 51 -48 57 -48 5 0 51 -40 100 -90 50 -49 95
-90 101 -90 9 0 360 -345 360 -354 0 -10 -39 -6 -45 4 -3 6 -17 10 -31 10 -13
0 -24 5 -24 10 0 6 -8 10 -18 10 -10 0 -53 18 -96 40 -42 22 -84 40 -92 40 -7
0 -14 5 -14 10 0 6 -9 10 -20 10 -11 0 -20 5 -20 10 0 6 -9 10 -20 10 -11 0
-20 5 -20 10 0 6 -9 10 -20 10 -11 0 -20 5 -20 10 0 6 -9 10 -20 10 -11 0 -20
5 -20 10 0 6 -9 10 -20 10 -11 0 -20 5 -20 10 0 6 -9 10 -20 10 -11 0 -20 5
-20 10 0 6 -9 10 -20 10 -11 0 -20 5 -20 10 0 6 -9 10 -20 10 -11 0 -20 5 -20
10 0 6 -7 10 -15 10 -9 0 -25 9 -37 20 -12 11 -28 20 -35 20 -7 0 -13 5 -13
10 0 6 -9 10 -20 10 -11 0 -20 5 -20 10 0 6 -9 10 -20 10 -11 0 -20 5 -20 10
0 6 -9 10 -19 10 -11 0 -21 3 -23 8 -3 7 -69 45 -115 67 -13 5 -23 13 -23 18
0 4 -9 7 -19 7 -11 0 -21 3 -23 8 -4 9 -57 41 -80 49 -10 3 -18 9 -18 14 0 5
-9 9 -20 9 -11 0 -20 5 -20 10 0 6 -9 10 -20 10 -11 0 -20 5 -20 10 0 6 -9 10
-20 10 -11 0 -20 5 -20 10 0 6 -9 10 -20 10 -11 0 -20 5 -20 10 0 6 -9 10 -20
10 -11 0 -20 5 -20 10 0 6 -9 10 -19 10 -11 0 -21 3 -23 8 -4 9 -57 41 -80 49
-10 3 -18 9 -18 14 0 5 -9 9 -20 9 -11 0 -20 5 -20 10 0 6 -9 10 -19 10 -11 0
-21 3 -23 8 -3 6 -72 44 -155 86 -13 6 -23 14 -23 19 0 4 -9 7 -20 7 -11 0
-20 5 -20 10 0 6 -9 10 -20 10 -11 0 -20 5 -20 10 0 6 -9 10 -20 10 -11 0 -20
5 -20 10 0 6 -9 10 -20 10 -11 0 -20 5 -20 10 0 6 -9 10 -20 10 -11 0 -20 5
-20 10 0 6 -9 10 -20 10 -11 0 -20 5 -20 10 0 6 -9 10 -19 10 -11 0 -21 3 -23
8 -2 4 -33 23 -70 42 -38 19 -68 38 -68 42 0 5 -7 8 -15 8 -8 0 -29 14 -47 30
-17 17 -35 30 -40 30 -5 0 -24 15 -42 33 -19 17 -53 47 -75 65 -23 18 -41 38
-41 43 0 5 -9 19 -20 31 -11 12 -20 28 -20 35 0 7 -4 13 -8 13 -4 0 -19 22
-33 50 -13 27 -27 50 -31 50 -5 0 -8 11 -8 24 0 14 -4 28 -10 31 -5 3 -10 19
-10 34 0 15 -4 31 -9 36 -21 22 -40 310 -22 328 6 6 11 30 11 53 0 24 5 46 10
49 6 3 10 21 10 40 0 19 5 37 10 40 6 3 10 17 10 30 0 13 5 27 10 30 5 3 10
19 10 36 0 16 5 29 10 29 6 0 10 15 10 34 0 19 4 38 10 41 6 3 10 19 10 35 0
16 5 32 10 35 6 3 10 17 10 30 0 13 5 27 10 30 6 3 10 22 10 41 0 19 5 34 10
34 6 0 10 18 10 40 0 22 5 40 10 40 6 0 10 15 10 33 0 18 6 39 12 45 9 9 12
56 12 163 -1 143 -4 160 -35 221 -5 10 -9 24 -9 32 0 21 -103 126 -123 126 -9
0 -17 5 -17 10 0 6 -8 10 -18 10 -10 0 -22 4 -28 9 -31 30 -477 31 -508 0 -6
-5 -18 -9 -28 -9 -10 0 -18 -4 -18 -10 0 -5 -9 -10 -20 -10 -11 0 -20 -4 -20
-9 0 -5 -8 -11 -17 -14 -27 -8 -76 -40 -94 -59 -9 -10 -20 -18 -25 -18 -15 0
-58 -43 -73 -72 -8 -16 -18 -28 -23 -28 -16 0 -8 -72 10 -89 9 -9 30 -33 46
-55 16 -21 53 -63 82 -92 30 -29 54 -60 54 -69 0 -8 5 -15 10 -15 6 0 10 -6
10 -12 0 -7 9 -24 20 -38 11 -14 20 -36 20 -50 0 -15 4 -30 9 -35 5 -6 12 -32
15 -60 3 -27 10 -81 17 -120 20 -113 12 -395 -12 -420 -5 -5 -9 -24 -9 -41 0
-18 -4 -36 -10 -39 -5 -3 -10 -19 -10 -36 0 -16 -4 -29 -10 -29 -5 0 -10 -13
-10 -30 0 -16 -4 -30 -10 -30 -5 0 -10 -9 -10 -19 0 -11 -4 -23 -10 -26 -5 -3
-10 -17 -10 -31 0 -13 -4 -24 -10 -24 -5 0 -10 -9 -10 -20 0 -11 -4 -20 -10
-20 -5 0 -10 -6 -10 -13 0 -18 -24 -67 -32 -67 -5 0 -8 -9 -8 -20 0 -11 -4
-20 -8 -20 -5 0 -15 -12 -23 -27 -8 -16 -22 -37 -31 -47 -10 -11 -18 -26 -18
-33 0 -7 -4 -13 -10 -13 -5 0 -10 -9 -10 -20 0 -11 -4 -20 -10 -20 -5 0 -10
-7 -10 -15 0 -8 -13 -29 -30 -47 -16 -17 -30 -37 -30 -44 0 -8 -4 -14 -8 -14
-4 0 -16 -14 -26 -31 -10 -16 -33 -45 -52 -64 -19 -19 -34 -39 -34 -44 0 -6
-22 -34 -50 -63 -27 -29 -50 -56 -50 -61 0 -5 -13 -22 -30 -37 -16 -15 -30
-32 -30 -38 0 -5 -12 -22 -27 -38 -16 -16 -34 -42 -42 -57 -8 -15 -18 -27 -23
-27 -4 0 -8 -9 -8 -20 0 -11 -3 -20 -7 -20 -5 0 -13 -10 -19 -23 -6 -12 -26
-51 -44 -87 -61 -122 -70 -142 -70 -156 0 -8 -4 -14 -10 -14 -5 0 -10 -9 -10
-19 0 -11 -5 -23 -10 -26 -5 -3 -10 -17 -10 -31 0 -13 -5 -24 -10 -24 -7 0 -9
-63 -6 -192 5 -214 13 -308 27 -308 5 0 9 -9 9 -21 0 -52 76 -119 136 -119 12
0 26 -4 29 -10 3 -5 22 -10 41 -10 19 0 34 -4 34 -10 0 -5 13 -10 29 -10 17 0
33 -4 36 -10 3 -5 22 -10 41 -10 19 0 34 -4 34 -10 0 -5 18 -10 39 -10 22 0
43 -4 46 -10 3 -5 22 -10 41 -10 19 0 34 -4 34 -10 0 -5 13 -10 29 -10 17 0
33 -4 36 -10 3 -5 22 -10 41 -10 19 0 34 -4 34 -10 0 -5 8 -10 18 -10 11 0 24
-12 31 -27 8 -16 17 -36 22 -45 5 -10 9 -29 9 -43 0 -14 5 -25 10 -25 6 0 10
-13 10 -29 0 -17 5 -33 10 -36 6 -3 10 -17 10 -31 0 -13 4 -32 9 -42 16 -31
28 -66 51 -142 12 -41 26 -84 31 -95 4 -11 13 -38 20 -60 7 -22 17 -44 21 -50
4 -5 8 -19 8 -32 0 -13 5 -23 10 -23 6 0 10 -9 10 -19 0 -11 5 -23 10 -26 6
-3 10 -15 10 -26 0 -10 4 -27 9 -37 5 -9 14 -37 21 -62 7 -25 16 -53 21 -62 5
-10 9 -29 9 -43 0 -14 5 -25 10 -25 6 0 10 -13 10 -30 0 -16 5 -30 10 -30 6 0
10 -13 10 -30 0 -16 5 -30 10 -30 6 0 10 -13 10 -29 0 -17 5 -33 10 -36 6 -3
10 -22 10 -41 0 -19 5 -34 10 -34 6 0 10 -11 10 -24 0 -14 5 -28 10 -31 6 -3
10 -15 10 -26 0 -10 5 -28 10 -39 6 -11 15 -29 20 -40 6 -11 10 -29 10 -40 0
-11 5 -20 10 -20 6 0 10 -13 10 -29 0 -17 5 -33 10 -36 6 -3 10 -17 10 -30 0
-13 5 -27 10 -30 6 -3 10 -19 10 -35 0 -16 5 -32 10 -35 6 -3 10 -19 10 -36 0
-16 5 -29 10 -29 6 0 10 -13 10 -30 0 -16 5 -30 10 -30 6 0 10 -13 10 -30 0
-16 5 -30 10 -30 6 0 10 -13 10 -30 0 -16 5 -30 10 -30 6 0 10 -13 10 -30 0
-16 5 -30 10 -30 6 0 10 -13 10 -30 0 -16 5 -30 10 -30 6 0 10 -13 10 -30 0
-16 5 -30 10 -30 6 0 10 -13 10 -30 0 -16 5 -30 10 -30 6 0 10 -11 10 -24 0
-14 5 -28 10 -31 6 -3 10 -17 10 -30 0 -13 5 -27 10 -30 6 -3 10 -19 10 -36 0
-16 5 -29 10 -29 6 0 10 -13 10 -29 0 -17 5 -33 10 -36 6 -3 10 -17 10 -31 0
-13 5 -33 10 -44 6 -11 15 -29 20 -40 6 -11 10 -33 10 -50 0 -16 5 -30 10 -30
6 0 10 -9 10 -20 0 -12 -7 -20 -17 -20 -18 0 -143 126 -143 144 0 7 -9 18 -20
26 -11 8 -20 21 -20 30 0 9 -9 22 -20 30 -11 8 -20 21 -20 30 0 9 -9 22 -20
30 -11 8 -20 21 -20 30 0 9 -9 22 -20 30 -11 8 -20 22 -20 31 0 10 -3 19 -7
21 -10 4 -42 57 -50 81 -3 9 -9 17 -14 17 -5 0 -9 7 -9 15 0 9 -9 25 -20 37
-11 12 -20 28 -20 35 0 7 -4 13 -10 13 -5 0 -10 9 -10 20 0 11 -4 20 -9 20 -5
0 -14 14 -21 30 -7 17 -16 30 -21 30 -5 0 -9 8 -9 18 0 10 -9 24 -20 32 -11 8
-20 22 -20 32 0 10 -4 18 -10 18 -5 0 -10 9 -10 19 0 11 -3 21 -7 23 -10 4
-42 57 -50 81 -3 9 -9 17 -14 17 -5 0 -9 8 -9 18 0 10 -9 24 -20 32 -11 8 -20
21 -20 30 0 9 -9 22 -20 30 -11 8 -20 21 -20 30 0 9 -9 22 -20 30 -11 8 -20
22 -20 32 0 10 -4 18 -8 18 -5 0 -15 12 -23 28 -8 15 -22 34 -31 43 -10 9 -18
24 -18 33 0 9 -4 16 -10 16 -5 0 -10 9 -10 20 0 11 -4 20 -8 20 -5 0 -15 12
-23 28 -8 15 -22 36 -31 46 -10 11 -18 26 -18 33 0 7 -4 13 -10 13 -5 0 -10 8
-10 18 0 10 -9 24 -20 32 -11 8 -20 22 -20 31 0 10 -3 19 -7 21 -10 4 -42 57
-50 81 -3 9 -9 17 -14 17 -5 0 -9 9 -9 20 0 11 -4 20 -10 20 -5 0 -10 6 -10
13 0 7 -9 23 -20 35 -11 12 -20 26 -20 32 0 6 -9 20 -20 32 -11 12 -20 28 -20
35 0 7 -4 13 -10 13 -5 0 -10 9 -10 20 0 11 -4 20 -10 20 -5 0 -10 6 -10 13 0
7 -9 23 -20 35 -11 12 -20 27 -20 34 0 8 -9 20 -20 28 -11 8 -20 22 -20 32 0
10 -4 18 -10 18 -5 0 -10 6 -10 13 0 7 -9 23 -20 35 -11 12 -20 27 -20 34 0 8
-9 20 -20 28 -11 8 -20 22 -20 32 0 10 -4 18 -10 18 -5 0 -10 7 -10 15 0 9 -9
25 -20 37 -11 12 -20 28 -20 35 0 7 -4 13 -10 13 -5 0 -10 6 -10 13 0 7 -9 23
-20 35 -11 12 -20 28 -20 37 0 8 -4 15 -10 15 -5 0 -10 6 -10 13 0 7 -8 22
-17 33 -10 10 -24 31 -32 47 -8 15 -18 27 -23 27 -4 0 -8 9 -8 20 0 11 -3 20
-7 20 -5 0 -13 10 -19 23 -6 12 -21 42 -34 67 -12 25 -26 53 -31 62 -5 10 -9
27 -9 37 0 11 -4 23 -10 26 -5 3 -10 19 -10 36 0 16 -4 29 -10 29 -5 0 -10 18
-10 39 0 22 -4 43 -10 46 -5 3 -10 22 -10 41 0 19 -5 34 -10 34 -7 0 -9 76 -7
233 4 231 11 307 28 307 5 0 9 14 9 30 0 17 5 30 10 30 6 0 10 11 10 24 0 14
5 28 10 31 6 3 10 15 10 26 0 10 5 19 10 19 6 0 10 9 10 20 0 11 5 20 10 20 6
0 10 9 10 20 0 11 5 20 10 20 6 0 10 9 10 20 0 11 5 20 10 20 6 0 10 9 10 20
0 11 5 20 10 20 6 0 10 9 10 20 0 11 5 20 10 20 6 0 10 9 10 20 0 11 5 20 10
20 6 0 10 6 10 13 0 7 18 33 40 57 22 24 40 49 40 55 0 6 9 17 20 25 11 8 20
19 20 25 0 5 13 24 28 40 15 17 39 46 52 65 13 19 30 41 37 48 7 8 26 30 41
50 15 21 34 44 42 52 9 8 27 31 40 50 14 19 37 48 52 64 16 16 28 33 28 38 0
4 14 22 30 40 17 17 30 37 30 44 0 8 5 14 10 14 6 0 10 6 10 13 0 7 8 22 18
33 9 10 23 31 31 47 8 15 18 27 23 27 4 0 8 9 8 20 0 11 5 20 10 20 6 0 10 9
10 20 0 11 5 20 10 20 6 0 10 9 10 20 0 11 5 20 10 20 6 0 10 9 10 20 0 11 5
29 10 40 6 11 15 29 20 40 6 11 10 33 10 50 0 16 4 30 9 30 15 0 23 70 28 248
2 115 0 172 -7 172 -5 0 -10 13 -10 29 0 17 -4 33 -10 36 -5 3 -10 19 -10 35
0 16 -4 32 -10 35 -5 3 -10 15 -10 25 0 10 -3 20 -7 22 -5 2 -19 24 -32 51
-13 26 -28 47 -33 47 -4 0 -8 6 -8 14 0 7 -12 25 -26 40 -26 25 -31 26 -145
26 -66 0 -127 -4 -137 -9 -9 -5 -53 -27 -97 -48 -114 -57 -125 -63 -172 -110
l-43 -42 0 -78 c0 -43 5 -113 12 -156 9 -61 9 -83 0 -98 -7 -10 -12 -34 -12
-53 0 -19 -4 -38 -10 -41 -5 -3 -10 -19 -10 -36 0 -16 -4 -29 -10 -29 -5 0
-10 -9 -10 -20 0 -11 -4 -20 -10 -20 -5 0 -10 -4 -10 -10 0 -5 -14 -33 -32
-62 -28 -46 -32 -62 -31 -118 0 -37 5 -66 12 -68 6 -2 11 -17 11 -33 0 -16 5
-29 10 -29 6 0 10 -13 10 -29 0 -16 5 -31 11 -33 17 -6 17 -254 -1 -310 -8
-27 -18 -48 -22 -48 -4 0 -8 -7 -8 -15 0 -16 -7 -32 -34 -80 -10 -16 -20 -38
-23 -47 -3 -10 -9 -18 -14 -18 -5 0 -9 -5 -9 -11 0 -5 -12 -24 -27 -40 -85
-92 -116 -119 -150 -134 -21 -9 -55 -25 -76 -36 -22 -10 -45 -19 -53 -19 -8 0
-14 -4 -14 -10 0 -5 -9 -10 -20 -10 -11 0 -20 -5 -20 -11 0 -7 -43 -9 -132 -6
-140 5 -205 13 -214 28 -3 5 -18 9 -34 9 -16 0 -32 5 -35 10 -3 6 -15 10 -26
10 -10 0 -19 5 -19 10 0 6 -6 10 -14 10 -7 0 -27 14 -44 30 -18 17 -36 30 -41
30 -5 0 -27 18 -50 40 -35 35 -47 40 -86 40 -25 0 -45 -4 -45 -10 0 -5 -9 -10
-19 -10 -11 0 -23 -4 -26 -10 -3 -5 -17 -10 -31 -10 -13 0 -24 -4 -24 -10 0
-5 -9 -10 -19 -10 -11 0 -23 -4 -26 -10 -3 -5 -17 -10 -31 -10 -13 0 -24 -4
-24 -10 0 -5 -9 -10 -20 -10 -11 0 -20 -4 -20 -10 0 -5 -8 -10 -17 -11 -10 0
-31 -8 -48 -18 -27 -16 -30 -23 -28 -62 2 -65 14 -119 25 -119 6 0 8 -29 5
-72 -7 -94 -17 -148 -28 -148 -5 0 -9 -11 -9 -24 0 -28 -77 -116 -101 -116 -8
0 -19 -4 -24 -9 -6 -5 -30 -11 -55 -14 -25 -3 -70 -11 -100 -17 -30 -6 -70
-13 -87 -17 -18 -3 -33 -9 -33 -14 0 -5 -9 -9 -20 -9 -11 0 -20 -4 -20 -10 0
-5 -9 -10 -20 -10 -11 0 -20 -1 -20 -3 0 -1 -9 -27 -20 -57 -11 -30 -20 -74
-20 -97 0 -24 -4 -43 -10 -43 -5 0 -10 -18 -10 -40 0 -22 -4 -40 -10 -40 -5 0
-10 -18 -10 -40 0 -22 -4 -40 -10 -40 -5 0 -10 -13 -10 -30 0 -16 -4 -30 -10
-30 -5 0 -10 -13 -10 -30 0 -16 -4 -30 -10 -30 -5 0 -10 -9 -10 -20 0 -11 -4
-20 -10 -20 -5 0 -10 -9 -10 -20 0 -11 -4 -20 -10 -20 -5 0 -10 -7 -10 -15 0
-8 -4 -24 -10 -35 -5 -11 -14 -29 -20 -40 -5 -11 -10 -27 -10 -35 0 -8 -4 -15
-10 -15 -5 0 -10 -11 -10 -24 0 -14 -4 -28 -10 -31 -6 -3 -10 -15 -10 -26 0
-10 -4 -19 -10 -19 -5 0 -10 -6 -10 -14 0 -18 -59 -131 -82 -155 -10 -11 -18
-27 -18 -36 0 -8 -4 -15 -10 -15 -18 0 -11 -51 12 -83 12 -18 147 -156 300
-308 l278 -277 0 -49 c0 -27 -4 -53 -9 -58 -5 -6 -12 -29 -15 -52 -3 -24 -9
-62 -12 -85 -3 -24 -10 -47 -15 -52 -5 -6 -9 -27 -9 -47 0 -21 -4 -41 -10 -44
-6 -3 -10 -25 -10 -49 0 -23 -4 -46 -9 -51 -5 -6 -12 -29 -15 -52 -3 -24 -9
-62 -12 -85 -3 -24 -10 -47 -15 -52 -5 -6 -9 -29 -9 -53 0 -24 -4 -43 -10 -43
-5 0 -10 -22 -10 -49 0 -28 -4 -53 -10 -56 -5 -3 -10 -26 -10 -50 0 -24 -4
-47 -10 -50 -5 -3 -10 -30 -10 -60 0 -30 -4 -57 -10 -60 -6 -3 -10 -23 -10
-44 0 -20 -4 -41 -9 -46 -5 -6 -12 -29 -15 -52 -3 -24 -9 -62 -12 -85 -3 -24
-10 -47 -15 -52 -5 -6 -9 -27 -9 -47 0 -21 -4 -41 -10 -44 -6 -3 -10 -24 -10
-45 0 -21 -4 -41 -9 -44 -5 -3 -11 -23 -15 -43 -3 -21 -10 -67 -16 -103 -6
-36 -13 -84 -16 -107 -3 -24 -10 -43 -15 -43 -5 0 -9 -22 -9 -49 0 -28 -4 -53
-10 -56 -6 -3 -10 -24 -10 -45 0 -21 -4 -42 -10 -45 -5 -3 -10 -26 -10 -50 0
-24 -4 -47 -10 -50 -5 -3 -10 -24 -10 -45 0 -21 -4 -42 -10 -45 -5 -3 -10 -26
-10 -50 0 -24 -4 -46 -9 -49 -9 -6 -18 -53 -27 -146 -3 -30 -10 -59 -15 -64
-5 -6 -9 -27 -9 -48 0 -21 -4 -38 -10 -38 -5 0 -10 -22 -10 -49 0 -28 -5 -53
-10 -56 -6 -3 -10 -24 -10 -45 0 -21 -4 -42 -10 -45 -5 -3 -10 -24 -10 -45 0
-21 -4 -41 -9 -44 -5 -3 -11 -23 -15 -43 -13 -90 -19 -113 -27 -113 -5 0 -9
-13 -9 -28 0 -32 -16 -52 -42 -52 -18 0 -18 42 -13 1103 3 606 7 1424 10 1817
6 785 9 742 -55 810 -17 18 -38 45 -47 61 -10 16 -21 29 -25 29 -4 0 -8 6 -8
13 0 7 -9 23 -20 35 -11 12 -20 28 -20 36 0 8 -3 16 -7 18 -10 4 -42 57 -50
81 -3 9 -9 17 -14 17 -5 0 -9 9 -9 20 0 11 -4 20 -10 20 -5 0 -10 6 -10 13 0
7 -9 23 -20 35 -11 12 -20 28 -20 37 0 8 -4 15 -10 15 -5 0 -10 9 -10 19 0 11
-4 23 -10 26 -5 3 -10 17 -10 31 0 13 -4 24 -10 24 -5 0 -10 11 -10 24 0 14
-4 28 -10 31 -5 3 -10 17 -10 30 0 13 -4 27 -10 30 -5 3 -10 19 -10 36 0 16
-4 29 -10 29 -5 0 -10 18 -10 40 0 22 -4 40 -10 40 -5 0 -10 15 -10 34 0 19
-4 38 -10 41 -5 3 -10 26 -10 50 0 24 -4 47 -10 50 -5 3 -10 24 -10 45 0 21
-4 42 -10 45 -5 3 -10 15 -10 27 0 11 -8 22 -20 25 -11 3 -20 9 -20 14 0 5 -9
9 -20 9 -11 0 -20 5 -20 10 0 6 -9 10 -19 10 -11 0 -23 5 -26 10 -3 6 -30 10
-60 10 -30 0 -57 5 -60 10 -3 6 -24 10 -46 10 -21 0 -47 4 -57 9 -9 5 -33 16
-53 25 -49 21 -89 61 -118 117 -19 39 -22 57 -18 110 8 89 18 139 28 139 5 0
9 15 9 34 0 19 5 38 10 41 14 9 12 54 -2 68 -19 18 -98 57 -114 57 -8 0 -14 5
-14 10 0 6 -9 10 -20 10 -11 0 -20 5 -20 10 0 6 -11 10 -24 10 -14 0 -28 5
-31 10 -3 6 -15 10 -26 10 -10 0 -19 5 -19 10 0 6 -9 10 -20 10 -11 0 -20 5
-20 10 0 6 -13 10 -29 10 -17 0 -33 5 -36 10 -8 13 -39 -3 -80 -41 -16 -16
-34 -29 -39 -29 -5 0 -16 -8 -25 -18 -9 -9 -28 -23 -43 -31 -16 -8 -28 -18
-28 -23 0 -4 -9 -8 -20 -8 -11 0 -20 -4 -20 -10 0 -5 -9 -10 -20 -10 -11 0
-20 -4 -20 -10 0 -5 -13 -10 -28 -10 -15 0 -33 -5 -39 -11 -6 -6 -57 -9 -144
-6 -141 5 -206 13 -215 28 -3 5 -16 9 -30 9 -13 0 -24 5 -24 10 0 6 -9 10 -20
10 -11 0 -20 5 -20 10 0 6 -9 10 -20 10 -11 0 -20 5 -20 10 0 6 -9 10 -20 10
-11 0 -20 4 -20 8 0 5 -12 15 -27 23 -30 15 -93 74 -93 86 0 4 -14 24 -30 43
-16 19 -30 41 -30 48 0 6 -4 12 -10 12 -5 0 -10 9 -10 20 0 11 -4 20 -10 20
-5 0 -10 9 -10 20 0 11 -4 20 -10 20 -5 0 -10 14 -10 30 0 17 -4 30 -10 30 -5
0 -10 14 -10 30 0 17 -4 30 -10 30 -6 0 -10 43 -10 109 0 63 4 112 10 116 6 3
10 22 10 41 0 19 5 34 10 34 6 0 10 11 10 24 0 14 5 28 10 31 6 3 10 17 10 30
0 13 5 27 10 30 17 11 11 102 -9 138 -48 85 -61 114 -61 132 0 8 -4 15 -10 15
-5 0 -10 13 -10 29 0 17 -4 33 -10 36 -5 3 -10 17 -10 31 0 13 -4 24 -10 24
-6 0 -10 68 -10 185 l0 185 -53 53 c-57 56 -88 77 -112 77 -8 0 -15 5 -15 10
0 6 -9 10 -20 10 -11 0 -20 5 -20 10 0 6 -9 10 -20 10 -11 0 -20 5 -20 10 0 6
-13 10 -30 10 -16 0 -30 5 -30 10 0 6 -49 10 -126 10 l-126 0 -34 -37 c-19
-20 -34 -43 -34 -50 0 -7 -4 -13 -10 -13 -5 0 -10 -6 -10 -12 0 -7 -9 -24 -20
-38 -11 -14 -20 -35 -20 -47 0 -13 -4 -23 -10 -23 -5 0 -10 -11 -10 -24 0 -14
-4 -28 -10 -31 -5 -3 -10 -24 -10 -46 0 -21 -4 -39 -10 -39 -6 0 -10 -56 -10
-149 0 -89 4 -152 10 -156 6 -3 10 -24 10 -45 0 -21 4 -41 9 -44 5 -3 12 -23
15 -43 16 -92 19 -103 27 -103 5 0 9 -11 9 -24 0 -14 5 -28 10 -31 6 -3 10
-15 10 -25 0 -10 3 -20 8 -22 7 -3 45 -69 67 -115 5 -13 13 -23 18 -23 4 0 7
-9 7 -20 0 -11 5 -20 10 -20 6 0 10 -6 10 -13 0 -7 9 -23 20 -35 11 -12 20
-27 20 -34 0 -8 9 -20 20 -28 11 -8 20 -21 20 -30 0 -9 9 -22 20 -30 11 -8 20
-20 20 -26 0 -6 18 -30 40 -53 22 -22 40 -45 40 -49 0 -4 22 -33 50 -63 27
-29 50 -58 50 -62 0 -5 14 -22 30 -37 17 -15 30 -33 30 -39 0 -6 20 -32 45
-57 25 -24 45 -48 45 -53 0 -4 11 -21 25 -37 14 -16 25 -35 25 -41 0 -7 4 -13
9 -13 5 0 14 -13 21 -30 7 -16 16 -30 21 -30 5 0 9 -9 9 -20 0 -11 4 -20 8
-20 5 0 20 -21 33 -47 13 -27 27 -49 32 -51 4 -2 7 -10 7 -18 0 -8 8 -32 19
-53 10 -22 24 -60 32 -85 7 -25 17 -46 21 -46 4 0 8 -18 8 -40 0 -22 5 -40 10
-40 6 0 10 -17 10 -38 0 -21 4 -42 9 -47 23 -24 31 -358 12 -525 -16 -148 -29
-251 -37 -293 -3 -22 -2 -49 4 -60 5 -12 16 -42 23 -67 7 -25 16 -49 21 -55 4
-5 8 -19 8 -32 0 -13 5 -23 10 -23 6 0 10 -13 10 -30 0 -16 5 -30 10 -30 6 0
10 -13 10 -30 0 -16 5 -30 10 -30 6 0 10 -11 10 -24 0 -14 5 -28 10 -31 6 -3
10 -17 10 -30 0 -13 5 -27 10 -30 6 -3 10 -28 10 -56 0 -27 -4 -49 -10 -49 -5
0 -10 -9 -10 -20 0 -11 -4 -20 -10 -20 -5 0 -10 -6 -10 -14 0 -7 -18 -32 -40
-55 -22 -22 -40 -45 -40 -50 0 -6 -40 -51 -90 -100 -49 -50 -90 -95 -90 -100
0 -5 -21 -31 -48 -58 -26 -26 -58 -64 -72 -83 -14 -19 -48 -59 -77 -88 -29
-29 -53 -57 -53 -62 0 -5 -19 -29 -42 -52 -24 -24 -56 -61 -72 -82 -16 -21
-57 -66 -90 -100 -34 -33 -72 -77 -86 -96 -14 -19 -39 -50 -57 -68 -18 -18
-33 -36 -33 -40 0 -4 -42 -51 -94 -104 -51 -53 -104 -111 -117 -130 -13 -18
-48 -58 -79 -88 -31 -30 -67 -71 -80 -90 -13 -19 -49 -60 -80 -90 -31 -30 -67
-71 -80 -90 -13 -19 -45 -55 -70 -80 -25 -25 -57 -61 -70 -80 -14 -19 -43 -54
-66 -76 -23 -23 -54 -59 -70 -80 -16 -22 -46 -56 -66 -76 -21 -20 -38 -41 -38
-46 0 -5 -19 -30 -42 -55 -24 -25 -52 -56 -63 -69 -25 -27 -83 -78 -90 -78 -3
0 -5 14 -5 30 0 17 5 30 10 30 6 0 10 9 10 20 0 11 5 20 10 20 6 0 10 6 10 13
0 7 8 22 18 33 9 10 23 31 31 47 8 15 18 27 23 27 4 0 8 8 8 18 0 10 9 24 20
32 11 8 20 22 20 32 0 10 5 18 10 18 6 0 10 6 10 13 0 7 8 22 18 33 15 17 45
69 76 131 6 13 14 23 19 23 4 0 7 9 7 20 0 11 5 20 10 20 6 0 10 9 10 20 0 11
4 20 9 20 5 0 14 14 21 30 7 17 16 30 20 30 4 0 13 14 20 30 7 17 16 30 21 30
5 0 9 9 9 20 0 11 5 20 10 20 6 0 10 9 10 19 0 11 3 21 8 23 6 3 36 55 66 115
6 13 14 23 19 23 4 0 7 9 7 20 0 11 4 20 9 20 5 0 11 8 14 18 3 9 13 31 23 47
9 17 20 37 24 45 10 23 34 64 40 70 3 3 16 26 29 53 13 26 28 47 33 47 4 0 8
7 8 15 0 9 9 25 20 37 11 12 20 28 20 35 0 7 5 13 10 13 6 0 10 9 10 19 0 11
3 21 8 23 4 1 18 24 31 51 13 26 28 47 33 47 4 0 8 9 8 20 0 11 4 20 9 20 5 0
11 8 14 18 8 23 40 76 50 80 4 2 7 12 7 23 0 10 5 19 10 19 6 0 10 8 10 18 0
10 9 24 20 32 11 8 20 22 20 32 0 10 5 18 10 18 6 0 10 6 10 13 0 7 9 23 20
35 11 12 20 28 20 36 0 8 3 16 8 18 6 3 36 55 66 115 6 13 14 23 19 23 4 0 7
9 7 19 0 11 3 21 8 23 9 4 41 57 49 81 3 9 9 17 14 17 5 0 9 6 9 14 0 17 42
100 53 104 4 2 7 12 7 23 0 10 5 19 10 19 6 0 10 9 10 20 0 11 5 20 10 20 6 0
10 6 10 13 0 7 8 22 18 33 9 10 23 31 31 47 8 15 18 27 23 27 4 0 8 9 8 20 0
11 5 20 10 20 6 0 10 9 10 20 0 11 5 20 10 20 6 0 10 6 10 13 0 7 9 23 20 35
11 12 20 28 20 36 0 8 4 16 8 18 4 2 29 46 55 98 26 52 59 114 72 138 14 23
25 51 25 62 0 11 5 20 10 20 6 0 10 14 10 30 0 17 5 30 10 30 6 0 10 14 10 30
0 17 5 30 10 30 6 0 10 13 10 29 0 17 4 32 9 35 30 19 30 516 0 516 -5 0 -9
13 -9 29 0 17 -4 33 -10 36 -5 3 -10 17 -10 30 0 13 -4 27 -10 30 -5 3 -10 17
-10 31 0 13 -4 24 -10 24 -5 0 -10 14 -10 30 0 17 -4 30 -10 30 -5 0 -10 9
-10 20 0 11 -4 20 -10 20 -5 0 -10 7 -10 15 0 14 -3 22 -32 78 -25 49 -34 62
-50 78 -10 9 -18 22 -18 28 0 7 -11 23 -25 37 -14 14 -25 29 -25 34 0 5 -10
19 -23 32 -12 13 -34 39 -47 58 -14 19 -37 48 -52 64 -16 16 -28 33 -28 38 0
6 -13 22 -28 36 -15 15 -39 43 -52 62 -13 19 -37 47 -52 62 -15 14 -28 32 -28
40 0 7 -9 20 -20 28 -11 8 -20 21 -20 30 0 9 -9 22 -20 30 -11 8 -20 21 -20
30 0 9 -9 22 -20 30 -11 8 -20 20 -20 28 0 7 -9 22 -20 34 -11 12 -20 28 -20
35 0 7 -4 13 -10 13 -5 0 -10 9 -10 20 0 11 -3 20 -7 20 -5 0 -13 10 -18 23
-6 12 -20 40 -32 62 -46 90 -63 128 -63 141 0 8 -4 14 -10 14 -5 0 -10 11 -10
24 0 14 -4 28 -10 31 -5 3 -10 19 -10 36 0 16 -4 29 -10 29 -5 0 -10 11 -10
24 0 14 -4 28 -10 31 -5 3 -10 19 -10 36 0 16 -4 29 -10 29 -5 0 -10 10 -10
23 0 13 -5 28 -11 34 -17 17 3 463 22 463 5 0 9 11 9 25 0 14 5 34 10 45 6 11
15 29 20 40 6 11 10 27 10 35 0 8 5 15 10 15 6 0 10 6 10 13 0 18 24 67 33 67
4 0 7 6 7 13 0 6 13 28 28 46 34 43 154 161 165 161 4 0 7 11 7 25 0 18 -23
48 -83 108 -79 77 -98 92 -147 117 -11 6 -29 15 -40 20 -11 6 -27 10 -35 10
-8 0 -15 5 -15 10 0 6 -15 10 -34 10 -19 0 -38 5 -41 10 -4 6 -85 10 -210 10
-125 0 -206 -4 -210 -10z"/>
</g>
</svg>
