<?xml version="1.0" standalone="no"?>
<!DOCTYPE svg PUBLIC "-//W3C//DTD SVG 20010904//EN"
 "http://www.w3.org/TR/2001/REC-SVG-20010904/DTD/svg10.dtd">
<svg version="1.0" xmlns="http://www.w3.org/2000/svg"
 width="1400.000000pt" height="700.000000pt" viewBox="0 0 1920.000000 1080.000000"
 preserveAspectRatio="xMidYMid meet">

<g transform="translate(0.000000,1080.000000) scale(0.100000,-0.100000)"
fill="#000000" stroke="none">
<path d="M5942 7369 c-84 -272 -118 -575 -138 -1216 l-7 -221 42 -12 c27 -7
57 -26 82 -52 l40 -41 38 37 c21 21 56 43 77 51 l39 13 -1 214 c-2 273 -20
593 -44 778 -26 202 -80 441 -105 469 -11 11 -15 7 -23 -20z m62 -274 c36
-179 54 -383 69 -773 l12 -333 -25 -23 c-14 -12 -40 -33 -57 -45 l-33 -22 -1
588 c0 323 -2 629 -5 678 -6 117 7 95 40 -70z"/>
<path d="M6925 7388 c-3 -7 -20 -78 -40 -158 -59 -249 -87 -541 -101 -1055
l-7 -255 22 0 c32 0 75 -25 104 -60 14 -16 29 -30 33 -30 5 0 24 16 44 35 19
19 53 41 75 48 l40 14 -2 224 c-5 526 -39 857 -120 1173 -17 66 -37 93 -48 64z
m59 -288 c40 -214 51 -352 72 -936 l7 -181 -54 -43 -54 -43 -5 54 c-3 30 -5
198 -4 374 1 176 2 455 3 619 0 165 3 297 5 295 2 -2 16 -65 30 -139z"/>
<path d="M6426 6906 c-29 -75 -64 -237 -75 -341 -14 -131 -31 -467 -31 -622 0
-74 -4 -123 -10 -123 -12 0 -16 19 -30 135 -13 108 -48 265 -60 265 -10 0 -29
-73 -49 -200 l-17 -105 47 -45 c59 -56 77 -111 58 -177 -10 -38 -15 -44 -33
-38 -12 3 -36 8 -53 12 -32 6 -33 5 -33 -32 0 -29 7 -44 34 -71 19 -19 41 -34
49 -34 14 0 58 45 84 86 10 16 12 9 12 -43 1 -71 7 -93 27 -93 8 0 34 -18 58
-40 24 -22 46 -40 50 -40 4 0 18 13 32 29 13 16 40 36 59 45 l35 17 1 72 c0
60 2 69 12 53 27 -44 70 -86 87 -86 31 0 80 66 80 106 0 39 1 39 -81 19 -24
-6 -27 -4 -38 40 -20 79 5 134 91 202 13 10 13 23 1 105 -13 92 -39 207 -48
217 -9 8 -16 -7 -30 -61 -17 -66 -45 -253 -45 -302 0 -25 -4 -36 -15 -36 -13
0 -15 21 -15 133 -1 299 -25 639 -56 782 -18 83 -64 215 -74 215 -4 0 -15 -20
-24 -44z m79 -306 c22 -147 34 -362 41 -740 l7 -325 -46 -38 -47 -38 1 673 c1
591 2 667 15 623 7 -27 20 -97 29 -155z"/>
<path d="M8258 6358 c5 -7 82 -107 171 -223 289 -376 315 -410 348 -449 l33
-40 0 -328 0 -328 100 0 100 0 0 328 0 327 59 75 c33 41 159 203 280 360 l221
285 -102 3 c-56 1 -107 1 -113 -2 -10 -3 -203 -251 -270 -346 -11 -15 -55 -74
-97 -129 l-77 -101 -81 107 c-45 60 -143 190 -218 290 l-137 183 -114 0 c-89
0 -111 -3 -103 -12z"/>
<path d="M10730 5680 l0 -690 100 0 100 0 0 305 0 305 139 0 139 0 83 -132
c109 -175 143 -229 195 -310 24 -37 44 -70 44 -73 0 -2 14 -25 32 -50 l32 -45
109 0 c84 0 107 3 101 13 -23 38 -337 519 -370 567 l-24 35 52 16 c182 55 293
176 306 335 14 179 -112 339 -309 394 -67 18 -103 20 -401 20 l-328 0 0 -690z
m712 512 c62 -31 114 -86 133 -141 30 -88 12 -154 -60 -227 -74 -74 -118 -84
-378 -84 l-207 0 0 241 0 240 233 -3 c219 -3 235 -4 279 -26z"/>
<path d="M12000 5680 l0 -690 100 0 100 0 0 305 0 305 425 0 425 0 0 -305 0
-305 100 0 100 0 0 690 0 690 -100 0 -100 0 0 -310 0 -310 -425 0 -425 0 0
310 0 310 -100 0 -100 0 0 -690z"/>
<path d="M13835 5920 c-97 -16 -190 -57 -247 -109 l-51 -47 54 -43 c30 -24 59
-45 66 -48 7 -3 34 13 60 35 26 21 68 47 92 56 107 42 260 29 335 -28 58 -45
76 -85 76 -177 l0 -75 -122 17 c-270 39 -429 15 -522 -78 -51 -51 -70 -108
-64 -192 11 -151 118 -247 289 -258 124 -9 290 40 386 113 17 13 34 24 37 24
3 0 8 -27 12 -60 l7 -60 84 0 84 0 -3 343 c-3 334 -4 343 -26 389 -41 83 -122
147 -226 180 -70 22 -236 31 -321 18z m217 -535 c182 -25 168 -18 168 -79 l0
-52 -66 -43 c-162 -107 -354 -123 -423 -35 -31 39 -36 86 -15 130 44 88 127
107 336 79z"/>
<path d="M9805 5906 c-245 -60 -407 -293 -367 -531 47 -288 326 -454 655 -391
257 49 428 283 389 532 -29 182 -158 325 -348 384 -77 23 -245 27 -329 6z
m229 -137 c79 -14 127 -42 181 -101 88 -98 107 -240 49 -369 -51 -113 -145
-171 -289 -177 -74 -3 -100 0 -146 17 -79 30 -140 86 -175 163 -24 54 -28 75
-28 148 0 72 4 94 27 142 46 94 114 150 212 174 64 16 98 16 169 3z"/>
<path d="M5763 5856 c-40 -18 -63 -54 -70 -106 l-6 -40 52 0 c77 0 120 -26
157 -94 16 -28 15 -29 -16 -54 -31 -24 -32 -28 -27 -76 8 -68 75 -199 138
-269 l50 -57 -36 -37 c-60 -61 -88 -118 -82 -160 11 -63 68 -99 131 -82 46 13
49 22 30 76 -17 48 -17 52 0 97 10 25 23 46 29 46 7 0 39 -14 72 -30 92 -45
125 -39 125 24 0 19 -16 31 -87 66 -122 60 -199 142 -253 269 -17 38 -20 55
-12 63 15 15 38 -4 47 -39 19 -77 131 -202 224 -252 71 -37 81 -38 81 -6 0 40
-20 71 -56 88 -84 40 -166 150 -178 239 -6 40 -11 48 -36 57 -17 5 -30 12 -30
15 0 3 10 21 21 41 28 47 84 75 149 75 44 0 50 3 50 20 0 60 -55 127 -112 136
-67 11 -117 -33 -132 -119 -9 -50 -38 -48 -46 3 -16 95 -95 143 -177 106z"/>
<path d="M6770 5860 c-50 -12 -90 -60 -90 -110 l0 -40 45 0 c63 0 115 -29 143
-79 l24 -41 -30 -11 c-25 -9 -30 -16 -34 -54 -11 -91 -86 -194 -183 -248 -31
-17 -42 -31 -49 -60 -5 -20 -7 -40 -3 -43 3 -4 32 4 64 17 83 33 189 141 228
232 21 47 35 67 47 67 26 0 22 -22 -18 -103 -52 -102 -145 -192 -247 -237 -81
-36 -94 -54 -64 -95 17 -23 64 -15 132 20 25 14 50 25 55 25 5 0 17 -14 26
-31 15 -31 15 -67 -1 -145 -6 -26 -3 -32 20 -42 44 -20 75 -14 111 22 56 56
39 132 -48 215 l-42 41 45 45 c57 58 116 156 135 225 9 30 18 63 21 73 3 11
-7 28 -26 46 -36 34 -38 45 -11 89 25 40 89 71 148 72 41 0 42 1 42 34 0 81
-91 144 -168 114 -41 -15 -82 -75 -82 -119 0 -15 -6 -29 -14 -32 -19 -7 -26 1
-26 31 0 38 -40 100 -76 117 -17 8 -34 15 -36 14 -1 -1 -19 -5 -38 -9z"/>
<path d="M6201 5431 c-31 -24 -23 -46 20 -55 53 -10 115 -83 129 -151 20 -95
-8 -225 -49 -225 -28 0 -35 -16 -21 -50 12 -28 34 -40 78 -40 26 0 28 -19 6
-61 -13 -27 -20 -30 -52 -27 -34 3 -37 1 -40 -26 -4 -31 10 -46 44 -46 39 0
64 -32 79 -98 16 -69 40 -122 55 -122 15 0 47 70 60 133 12 62 29 80 87 92 39
8 44 14 36 43 -4 18 -13 22 -44 22 -33 0 -41 5 -54 30 -24 46 -20 60 18 60 43
0 65 17 73 57 5 27 3 32 -17 35 -38 5 -63 68 -62 153 1 113 47 192 122 216 20
6 42 12 48 14 19 6 4 34 -28 50 -85 44 -187 -9 -213 -111 -15 -59 -38 -65 -47
-12 -5 34 -17 56 -52 100 -32 40 -134 51 -176 19z"/>
<path d="M5527 5394 c-23 -7 -47 -55 -47 -93 0 -17 12 -76 26 -131 31 -122 28
-188 -14 -247 -16 -23 -28 -57 -32 -88 l-5 -49 -231 -77 c-293 -97 -303 -99
-243 -61 26 17 66 41 90 55 190 107 348 202 366 219 34 31 57 100 49 145 -7
40 -45 197 -53 223 -8 22 -32 -37 -33 -78 0 -18 7 -49 15 -69 8 -19 15 -53 15
-75 0 -38 -1 -40 -27 -36 -16 3 -35 8 -45 12 -16 7 -50 -21 -446 -378 -120
-108 -154 -147 -119 -133 6 2 169 56 360 118 341 112 349 115 354 143 6 28 7
28 54 23 64 -8 137 -47 183 -97 31 -34 56 -77 56 -95 0 -9 -57 -34 -93 -40
-32 -6 -38 -12 -47 -44 -5 -20 -66 -207 -135 -415 -69 -208 -125 -383 -125
-388 0 -25 12 -12 393 422 174 199 196 228 190 250 -4 14 -7 43 -7 65 -1 38 1
40 39 53 92 31 230 -5 299 -77 32 -34 32 -33 -27 -98 -22 -24 -28 -38 -25 -60
11 -64 181 -898 184 -902 11 -12 24 45 105 441 48 238 90 444 94 458 5 21 -1
33 -34 67 -23 23 -41 48 -41 56 0 21 53 70 104 95 58 29 120 37 188 23 76 -16
83 -27 64 -90 l-15 -51 92 -109 c275 -325 507 -580 507 -558 0 9 -273 824
-281 838 -4 9 -25 19 -46 22 -85 14 -92 49 -26 126 43 51 140 101 195 101 31
0 38 -4 45 -27 9 -25 34 -35 373 -150 200 -68 366 -120 369 -117 6 6 -7 19
-215 203 -76 68 -178 159 -226 203 -132 121 -135 123 -164 109 -50 -22 -56
-17 -49 47 15 127 10 230 -10 210 -3 -2 -15 -40 -27 -84 -28 -102 -34 -192
-15 -218 14 -19 18 -19 70 -6 48 11 59 11 74 -1 54 -43 392 -349 385 -349 -4
0 -52 24 -107 53 -406 216 -436 235 -461 294 -20 46 -17 130 6 198 25 73 27
177 4 196 -9 7 -44 15 -78 16 -50 3 -68 0 -101 -19 -49 -29 -55 -53 -21 -84
33 -32 49 -94 43 -171 -5 -71 -26 -112 -124 -245 -73 -99 -97 -161 -88 -227
10 -67 11 -68 88 -86 40 -10 76 -21 80 -25 7 -6 217 -625 217 -639 0 -13 -25
26 -112 169 -52 85 -136 225 -188 310 -52 85 -102 178 -112 205 -37 108 -14
194 91 335 80 106 111 171 111 231 0 94 -32 136 -93 124 -62 -13 -77 -30 -77
-86 0 -28 -5 -60 -12 -72 -7 -12 -12 -60 -13 -109 0 -87 0 -88 -37 -124 -30
-30 -45 -38 -87 -42 -44 -4 -57 -1 -93 23 l-41 27 -45 -21 c-42 -21 -44 -23
-38 -57 11 -56 1 -72 -59 -89 l-54 -16 -11 -57 c-7 -31 -28 -88 -48 -125 l-36
-69 74 -68 74 -67 -72 -364 c-40 -200 -72 -372 -72 -381 0 -9 -4 -20 -10 -23
-6 -4 -9 150 -7 444 2 447 2 450 -19 473 -31 33 -59 94 -77 167 -18 69 -25 77
-74 87 -44 8 -58 29 -58 87 0 48 -1 50 -39 65 -38 15 -40 15 -89 -12 -38 -22
-58 -27 -88 -23 -92 12 -155 119 -118 200 9 19 7 31 -5 55 -9 17 -16 55 -16
86 0 51 -2 56 -34 75 -47 30 -101 28 -122 -4 -42 -64 -22 -173 50 -277 150
-215 169 -265 149 -383 -11 -62 -10 -70 13 -121 13 -30 24 -58 24 -62 0 -7
-80 -101 -291 -343 -199 -227 -186 -215 -143 -134 20 39 40 75 44 80 4 6 39
66 77 135 39 69 79 141 90 160 115 206 134 244 143 292 18 94 -12 187 -89 281
-55 66 -107 153 -120 202 -23 84 -7 171 40 217 16 16 29 34 29 39 0 5 -18 20
-39 34 -38 26 -123 41 -164 29z"/>
<path d="M10241 4667 c-124 -61 -149 -221 -49 -314 34 -32 91 -53 141 -53 48
0 108 17 119 34 4 5 6 47 6 93 l0 83 -75 0 c-66 0 -74 -2 -71 -17 2 -14 15
-19 51 -21 l48 -3 -3 -57 c-3 -55 -3 -56 -38 -64 -49 -10 -105 8 -148 47 -35
32 -37 36 -37 99 0 60 2 67 34 100 40 41 99 59 155 46 21 -5 43 -13 49 -19 21
-21 38 -12 35 16 -6 52 -136 71 -217 30z"/>
<path d="M12065 4665 c-18 -17 -25 -35 -25 -64 0 -33 -3 -40 -22 -43 -13 -2
-23 -10 -23 -18 0 -8 10 -16 23 -18 21 -3 22 -7 22 -108 l0 -104 25 0 25 0 0
104 0 105 32 3 c22 2 34 9 36 21 3 14 -4 17 -32 17 -35 0 -36 1 -36 39 0 43
15 55 56 45 17 -4 26 -1 30 11 16 41 -73 49 -111 10z"/>
<path d="M8250 4495 l0 -185 25 0 c25 0 25 1 25 85 l0 85 74 0 c70 0 86 7 86
36 0 2 -36 4 -80 4 l-80 0 0 60 0 60 90 0 c83 0 90 1 90 20 0 19 -7 20 -115
20 l-115 0 0 -185z"/>
<path d="M9370 4495 l0 -185 25 0 c25 0 25 1 25 89 0 85 1 91 26 110 34 27 64
27 92 1 19 -18 22 -31 22 -110 0 -89 0 -90 25 -90 25 0 25 0 25 96 0 52 -5
104 -10 115 -24 44 -101 61 -152 35 l-28 -15 0 70 c0 67 -1 69 -25 69 l-25 0
0 -185z"/>
<path d="M10530 4523 c0 -177 7 -202 58 -217 42 -12 90 7 73 28 -7 8 -21 12
-31 9 -44 -12 -50 9 -50 178 l0 159 -25 0 -25 0 0 -157z"/>
<path d="M12350 4495 l0 -185 25 0 25 0 0 151 0 151 58 -79 c31 -44 66 -92 77
-107 l21 -27 77 107 77 107 0 -151 0 -152 25 0 25 0 0 185 0 185 -27 0 c-21
-1 -36 -12 -63 -48 -19 -26 -41 -53 -47 -60 -7 -7 -13 -16 -13 -20 -1 -4 -14
-22 -29 -40 l-29 -33 -73 100 c-62 87 -76 101 -101 101 l-28 0 0 -185z"/>
<path d="M13450 4495 l0 -185 25 0 c24 0 25 3 25 55 0 30 3 55 8 55 4 0 19
-10 32 -22 51 -45 129 -108 134 -108 3 0 6 11 6 24 0 17 -18 39 -64 77 -36 30
-65 56 -65 59 -1 3 27 28 60 55 l61 50 -31 3 c-25 3 -42 -6 -86 -44 l-55 -46
0 106 0 106 -25 0 -25 0 0 -185z"/>
<path d="M14390 4611 l0 -69 -31 15 c-20 10 -45 13 -71 10 -106 -14 -143 -154
-63 -234 27 -27 41 -33 74 -33 23 0 54 8 68 17 19 13 28 14 31 5 2 -6 12 -12
23 -12 18 0 19 9 19 185 l0 185 -25 0 c-24 0 -25 -2 -25 -69z m-41 -96 c34
-17 41 -33 41 -86 0 -29 -7 -47 -25 -64 -33 -33 -70 -32 -106 4 -38 39 -39 87
-3 130 29 34 51 38 93 16z"/>
<path d="M13742 4661 c-23 -14 -10 -46 19 -49 30 -4 46 22 28 44 -13 16 -28
17 -47 5z"/>
<path d="M9190 4605 c0 -38 -3 -45 -20 -45 -12 0 -20 -7 -20 -16 0 -9 9 -18
20 -21 18 -5 20 -14 20 -87 0 -95 13 -122 64 -132 44 -8 83 11 65 32 -7 8 -19
12 -27 9 -8 -3 -23 -3 -33 0 -17 6 -19 17 -19 91 l0 84 35 0 c28 0 35 4 35 20
0 16 -7 20 -35 20 -35 0 -35 0 -35 45 0 41 -2 45 -25 45 -23 0 -25 -4 -25 -45z"/>
<path d="M8565 4556 c-89 -39 -97 -185 -13 -236 99 -60 222 20 204 133 -9 54
-22 75 -59 97 -37 23 -89 25 -132 6z m116 -55 c21 -22 29 -39 29 -66 0 -45
-45 -95 -85 -95 -40 0 -85 50 -85 95 0 45 45 95 85 95 16 0 38 -12 56 -29z"/>
<path d="M8895 4555 c-19 -10 -31 -12 -33 -6 -2 6 -12 11 -23 11 -18 0 -19 -8
-19 -125 l0 -125 25 0 c25 0 25 1 25 85 0 79 2 88 26 112 19 19 33 24 55 21
27 -4 59 15 47 28 -15 14 -76 13 -103 -1z"/>
<path d="M9743 4555 c-39 -17 -60 -48 -68 -101 -19 -114 102 -195 195 -131 19
12 35 27 37 33 7 22 -28 24 -57 3 -39 -29 -89 -20 -113 20 -9 16 -17 32 -17
35 0 3 46 7 103 8 l102 3 -4 30 c-5 48 -30 86 -66 101 -42 17 -71 17 -112 -1z
m112 -50 c14 -13 25 -28 25 -34 0 -5 -34 -11 -75 -13 -65 -3 -75 -1 -75 14 0
22 47 58 77 58 13 0 35 -11 48 -25z"/>
<path d="M10761 4552 c-48 -24 -74 -75 -67 -134 8 -73 58 -118 133 -118 107 0
167 124 106 217 -33 50 -112 66 -172 35z m114 -45 c18 -15 28 -36 32 -64 5
-37 2 -45 -25 -73 -39 -39 -74 -39 -113 -1 -21 22 -29 39 -29 66 0 27 8 44 29
66 35 35 70 37 106 6z"/>
<path d="M11096 4555 c-33 -18 -39 -19 -31 -5 4 6 -5 10 -19 10 l-26 0 0 -125
0 -125 25 0 c25 0 25 1 25 85 0 78 2 88 25 110 18 18 35 25 65 25 44 0 57 23
18 34 -35 9 -50 7 -82 -9z"/>
<path d="M11751 4552 c-121 -61 -73 -252 64 -252 109 0 170 123 108 217 -33
50 -112 66 -172 35z m118 -46 c12 -13 25 -42 28 -65 5 -35 2 -44 -25 -71 -41
-41 -81 -41 -116 1 -36 43 -35 91 3 130 37 36 79 38 110 5z"/>
<path d="M12887 4560 c-31 -10 -57 -28 -57 -41 0 -14 42 -22 50 -9 4 6 25 14
47 17 33 4 45 1 62 -16 11 -11 21 -30 21 -41 0 -18 -7 -20 -75 -20 -86 0 -115
-18 -115 -70 0 -68 80 -101 153 -64 21 12 32 13 35 5 2 -6 15 -11 28 -11 23 0
24 2 24 84 0 93 -11 136 -40 154 -27 17 -98 23 -133 12z m121 -154 c22 -22
-62 -72 -104 -62 -31 8 -42 45 -18 64 18 13 108 11 122 -2z"/>
<path d="M13208 4556 c-16 -8 -28 -11 -28 -5 0 5 -11 9 -25 9 l-25 0 0 -125 0
-125 25 0 c25 0 25 1 25 89 0 85 1 91 26 110 34 27 64 27 92 1 19 -18 22 -31
22 -110 0 -89 0 -90 25 -90 25 0 25 0 25 96 0 52 -5 104 -10 115 -24 44 -101
61 -152 35z"/>
<path d="M13958 4556 c-16 -8 -28 -11 -28 -5 0 5 -11 9 -25 9 l-25 0 0 -125 0
-125 25 0 c25 0 25 1 25 89 0 85 1 91 26 110 35 27 65 27 92 -2 19 -20 22 -35
22 -110 0 -86 0 -87 25 -87 25 0 25 0 25 96 0 52 -5 104 -10 115 -24 44 -101
61 -152 35z"/>
<path d="M11240 4470 c0 -49 5 -100 11 -113 23 -51 110 -74 157 -41 21 15 22
14 22 -18 0 -39 -7 -51 -39 -67 -25 -14 -106 -7 -116 10 -10 15 -24 1 -18 -20
17 -67 186 -47 213 25 6 14 10 90 10 170 l0 144 -25 0 c-25 0 -25 -1 -25 -88
0 -80 -2 -91 -23 -110 -29 -28 -57 -28 -91 -1 -25 19 -26 25 -26 110 0 88 0
89 -25 89 -25 0 -25 -1 -25 -90z"/>
<path d="M13740 4435 l0 -125 25 0 25 0 0 125 0 125 -25 0 -25 0 0 -125z"/>
</g>
</svg>
