<?xml version="1.0" standalone="no"?>
<!DOCTYPE svg PUBLIC "-//W3C//DTD SVG 20010904//EN"
 "http://www.w3.org/TR/2001/REC-SVG-20010904/DTD/svg10.dtd">
<svg version="1.0" xmlns="http://www.w3.org/2000/svg"
 width="1024.000000pt" height="576.000000pt" viewBox="0 0 1024.000000 576.000000"
 preserveAspectRatio="xMidYMid meet">

<g transform="translate(0.000000,576.000000) scale(0.100000,-0.100000)"
fill="#000000" stroke="none">
<path d="M0 2880 l0 -2880 5120 0 5120 0 0 2880 0 2880 -5120 0 -5120 0 0
-2880z m5529 2124 c103 -30 172 -127 188 -261 5 -43 9 -53 25 -53 11 0 17 -4
13 -9 -3 -5 3 -12 12 -14 11 -3 8 -5 -9 -6 -16 0 -28 -6 -28 -12 0 -16 42 -89
52 -89 4 0 8 -6 8 -12 0 -7 25 -44 56 -83 70 -86 167 -231 204 -305 25 -49 38
-62 114 -108 137 -84 232 -166 307 -266 43 -58 35 -66 -10 -9 -42 53 -149 153
-165 153 -5 0 -1 -10 10 -22 l19 -23 -22 19 c-12 10 -21 23 -20 28 1 6 -4 13
-12 16 -9 3 -11 0 -7 -7 4 -6 -27 11 -70 39 -42 27 -80 50 -84 50 -4 0 -1 -23
6 -52 8 -29 14 -59 14 -66 0 -8 25 -50 56 -93 74 -106 178 -183 281 -209 33
-8 28 -9 -32 -6 -38 2 -78 6 -87 11 -49 21 12 -54 112 -139 28 -24 33 -30 12
-16 -18 12 -61 48 -95 79 l-62 56 35 -45 c19 -24 79 -89 132 -143 102 -103
104 -106 23 -48 l-50 36 34 -44 c19 -24 49 -58 66 -77 18 -19 30 -34 26 -34
-3 0 -49 35 -101 77 -84 69 -91 73 -62 35 19 -23 31 -42 28 -42 -3 0 -24 26
-48 58 -23 31 -63 80 -88 107 -25 28 -56 64 -69 80 -15 20 -20 23 -16 10 75
-231 92 -411 52 -545 l-13 -45 -8 85 c-18 195 -65 395 -124 518 l-27 57 -7
-50 c-4 -27 -14 -119 -23 -204 -16 -158 -51 -360 -64 -374 -13 -13 -44 31 -43
60 0 16 3 102 6 193 5 154 -2 189 -18 95 -4 -22 -15 -65 -23 -95 l-16 -55 -13
30 c-11 28 -11 61 2 145 5 33 4 34 -10 16 -8 -10 -17 -24 -19 -30 -7 -20 -13
-3 -55 163 -23 91 -46 169 -50 173 -5 5 -34 -22 -67 -63 -47 -58 -58 -79 -57
-104 3 -43 -39 -135 -62 -135 -4 0 -17 12 -30 26 -20 24 -24 25 -44 13 -26
-16 -28 -27 -7 -35 8 -4 15 -11 15 -17 0 -5 -9 -2 -19 7 -19 17 -21 17 -58
-12 -21 -16 -73 -44 -117 -63 -61 -26 -89 -46 -129 -89 -38 -42 -46 -48 -34
-24 22 42 89 100 171 148 93 54 151 108 143 130 -6 16 -10 16 -48 -6 -23 -13
-71 -50 -107 -83 -37 -33 -59 -50 -50 -37 20 29 105 102 152 132 20 12 36 23
36 25 0 3 -7 20 -16 39 -16 33 -16 35 9 68 29 37 71 127 64 134 -2 3 -12 -8
-22 -23 -10 -15 -33 -47 -52 -71 l-35 -42 -19 24 c-26 32 -24 67 6 126 14 27
25 51 25 54 0 2 -24 2 -54 -1 -92 -10 -176 48 -176 120 0 14 5 29 10 32 6 3
15 25 21 49 9 35 17 45 50 59 68 30 94 23 147 -35 26 -28 60 -65 75 -81 25
-26 26 -31 12 -41 -9 -6 -13 -18 -10 -27 5 -14 12 -13 53 8 25 13 63 26 84 30
41 6 44 12 24 58 -12 28 -13 29 -20 9 -8 -26 -46 -44 -91 -44 -29 0 -41 8 -82
57 -98 116 -109 121 -183 83 -22 -11 -42 -20 -45 -20 -9 0 -5 50 5 71 15 27
82 59 101 49 12 -7 20 -1 32 25 l16 34 -37 -19 c-57 -30 -96 -35 -115 -15 -21
20 -21 29 -2 48 12 13 10 15 -18 20 -25 3 -28 2 -16 -6 14 -9 15 -16 7 -41
-14 -42 -27 -54 -37 -37 -7 11 -10 9 -15 -7 -4 -11 -13 -22 -20 -25 -12 -5
-114 18 -124 28 -6 6 -3 114 3 136 4 10 14 15 30 14 28 -4 110 -58 124 -83 6
-9 10 -12 10 -7 0 15 -20 38 -52 58 -22 14 -25 20 -15 31 7 8 15 10 16 5 2 -5
14 -9 27 -9 l23 0 -20 63 c-11 34 -20 75 -19 90 2 32 -2 31 -64 -18 -64 -51
-74 -52 -23 -4 61 57 78 100 78 191 0 81 16 181 35 218 29 57 178 128 271 129
22 1 64 -6 93 -15z m461 -655 c7 -15 1 -11 -16 11 -16 19 -58 67 -94 106 -59
64 -58 63 16 -11 45 -45 87 -92 94 -106z m-869 76 c-5 -30 -8 -35 -12 -20 -6
20 7 72 15 64 2 -2 1 -22 -3 -44z m-1128 -12 c3 -16 17 -45 30 -65 l25 -37
-30 -10 c-40 -14 -38 -14 -38 9 0 11 -9 45 -19 75 -18 49 -18 54 -3 58 24 5
29 1 35 -30z m950 -39 l47 -6 0 -44 c0 -82 -34 -117 -93 -95 -23 9 -26 14 -18
29 8 14 4 27 -15 54 -22 30 -24 39 -14 57 7 14 18 20 28 17 9 -3 38 -8 65 -12z
m1077 -74 c6 -11 8 -20 6 -20 -3 0 -10 9 -16 20 -6 11 -8 20 -6 20 3 0 10 -9
16 -20z m-1890 -220 c0 -38 64 -209 102 -274 44 -74 121 -166 136 -161 6 3 12
-1 12 -6 0 -6 -10 -9 -23 -7 -13 2 -28 -1 -35 -8 -7 -8 -19 -11 -27 -8 -8 3
-22 -1 -30 -10 -19 -19 -39 -21 -29 -3 4 6 -1 5 -12 -4 -10 -9 -28 -19 -40
-23 -20 -6 -21 -4 -14 41 15 94 -26 286 -86 406 -30 61 -30 63 4 75 40 15 42
15 42 -18z m807 -336 c-3 -3 -12 -4 -19 -1 -8 3 -5 6 6 6 11 1 17 -2 13 -5z
m58 -43 c-3 -11 -8 -29 -10 -41 -2 -12 -7 -31 -10 -43 -17 -57 -16 -60 7 -27
35 52 55 46 115 -35 29 -38 53 -73 53 -76 0 -3 -26 -2 -57 3 -32 5 -72 7 -89
3 -52 -9 -201 -71 -253 -104 -26 -17 -51 -31 -56 -31 -13 0 26 40 69 71 50 37
36 37 -31 0 -50 -28 -53 -28 -59 -9 -3 11 1 27 10 37 9 10 14 20 11 23 -10 10
123 128 138 122 9 -3 20 2 26 13 5 11 29 25 53 33 59 18 28 25 -41 10 -65 -14
-140 -50 -193 -92 -48 -37 -50 -21 -3 20 52 46 118 82 208 113 99 35 121 37
112 10z m-186 5 c-2 -2 -15 -9 -29 -15 -24 -11 -24 -11 -6 3 16 13 49 24 35
12z m-59 -30 c0 -2 -18 -15 -40 -30 -22 -14 -40 -24 -40 -22 0 5 71 56 77 56
2 0 3 -2 3 -4z m1030 -79 c0 -2 -12 -14 -27 -28 l-28 -24 24 28 c23 25 31 32
31 24z m-360 -82 c0 -2 -10 -9 -22 -15 -22 -11 -22 -10 -4 4 21 17 26 19 26
11z m250 -60 c0 -44 -21 -125 -33 -125 -9 0 -1 119 10 147 10 25 23 13 23 -22z
m-553 0 c28 -8 62 -25 75 -36 20 -18 21 -20 3 -14 -73 26 -177 9 -250 -40
l-38 -26 6 28 c4 15 10 39 13 51 7 24 7 24 -25 8 -17 -9 -31 -14 -31 -12 0 3
14 12 30 21 17 9 30 13 30 11 0 -3 15 1 33 9 42 19 92 19 154 0z m443 -64 c7
-15 6 -18 -8 -17 -9 0 -16 -5 -14 -11 2 -14 -10 -17 -21 -6 -4 3 2 13 14 21
17 12 18 16 7 30 -10 12 -10 14 -1 8 7 -4 17 -15 23 -25z m537 -33 c-2 -13 -4
-5 -4 17 -1 22 1 32 4 23 2 -10 2 -28 0 -40z m-1267 29 c0 -2 -10 -12 -22 -23
l-23 -19 19 23 c18 21 26 27 26 19z m844 -56 c-4 -17 -9 -30 -11 -27 -3 2 -2
19 2 36 9 41 17 33 9 -9z m293 -23 c-3 -8 -6 -5 -6 6 -1 11 2 17 5 13 3 -3 4
-12 1 -19z m120 -35 c-3 -10 -5 -2 -5 17 0 19 2 27 5 18 2 -10 2 -26 0 -35z
m425 -35 c23 -29 38 -49 31 -45 -6 4 -31 30 -55 59 -23 29 -38 49 -31 45 6 -4
31 -30 55 -59z m-1825 -48 c13 -52 46 -161 72 -242 37 -113 47 -155 42 -180
l-7 -33 -13 35 c-7 19 -48 141 -91 270 -70 208 -77 236 -62 242 9 3 21 6 26 4
4 -1 19 -44 33 -96z m1028 -30 l-57 -58 -9 -83 c-5 -45 -11 -85 -13 -87 -3 -2
-31 -6 -63 -9 -61 -5 -110 7 -119 30 -3 8 12 53 33 100 35 81 41 88 80 103 23
9 55 14 71 12 27 -4 32 1 63 59 l34 63 18 -37 19 -36 -57 -57z m242 108 c-3
-8 -6 -5 -6 6 -1 11 2 17 5 13 3 -3 4 -12 1 -19z m120 -55 c-3 -10 -5 -4 -5
12 0 17 2 24 5 18 2 -7 2 -21 0 -30z m140 5 c-3 -7 -5 -2 -5 12 0 14 2 19 5
13 2 -7 2 -19 0 -25z m-150 -70 c-3 -7 -5 -2 -5 12 0 14 2 19 5 13 2 -7 2 -19
0 -25z m-277 18 c0 -2 -8 -10 -17 -17 -16 -13 -17 -12 -4 4 13 16 21 21 21 13z
m-767 -82 c-2 -96 -47 -164 -136 -211 -28 -14 -31 -14 -44 3 -29 40 -7 187 33
225 27 26 91 49 124 46 24 -2 25 -5 23 -63z m181 37 c16 -7 24 -16 20 -25 -3
-8 -1 -23 5 -33 7 -15 4 -32 -16 -72 -33 -65 -46 -72 -106 -54 -60 17 -70 40
-56 120 16 91 47 104 153 64z m-952 -184 c36 -105 101 -291 143 -412 42 -121
105 -303 140 -404 59 -168 65 -181 72 -151 6 23 8 0 8 -76 -1 -76 -9 -147 -28
-234 -14 -69 -28 -138 -31 -155 -10 -62 4 202 15 280 l12 82 -48 144 c-54 164
-271 783 -339 968 -51 139 -54 151 -28 151 13 0 31 -41 84 -193z m1508 190 c0
-2 -15 -16 -32 -33 l-33 -29 29 33 c28 30 36 37 36 29z m-265 -29 c-4 -13 -14
-30 -23 -38 -10 -8 -24 -28 -32 -44 -24 -46 -53 -60 -95 -46 -26 9 -35 17 -35
33 1 30 84 71 113 55 15 -8 18 -7 12 3 -5 8 2 21 21 36 36 29 47 29 39 1z
m562 0 c-3 -8 -6 -5 -6 6 -1 11 2 17 5 13 3 -3 4 -12 1 -19z m-787 -18 c28
-15 20 -76 -19 -142 l-31 -53 0 40 c0 23 9 58 20 79 14 28 17 44 10 57 -17 31
-12 36 20 19z m572 -32 c-7 -7 -12 -8 -12 -2 0 14 12 26 19 19 2 -3 -1 -11 -7
-17z m205 0 c-3 -8 -6 -5 -6 6 -1 11 2 17 5 13 3 -3 4 -12 1 -19z m-10 -50
c-3 -7 -5 -2 -5 12 0 14 2 19 5 13 2 -7 2 -19 0 -25z m-96 -189 c-22 -35 -26
-26 -15 30 6 28 9 31 21 18 13 -12 12 -19 -6 -48z m-1086 -299 c30 -11 28 -30
-15 -125 -25 -57 -93 -145 -112 -145 -15 0 3 73 27 110 12 19 25 54 29 77 8
53 23 93 35 93 5 0 21 -4 36 -10z m-83 -69 c-3 -43 -9 -64 -23 -77 -22 -20
-23 -14 -8 58 13 68 17 78 26 78 4 0 6 -27 5 -59z m168 9 c21 -16 43 -30 48
-30 17 0 24 -18 13 -38 -8 -14 13 -63 98 -233 59 -118 144 -277 188 -354 70
-120 85 -141 114 -151 25 -8 34 -17 34 -33 0 -14 11 -29 27 -39 18 -11 28 -26
30 -47 2 -24 8 -31 30 -33 22 -3 27 -9 30 -35 2 -24 9 -33 28 -37 20 -5 26
-13 28 -40 2 -22 19 -55 45 -88 89 -116 185 -174 289 -174 l60 0 -6 -36 c-3
-21 -21 -68 -40 -107 -65 -130 -177 -239 -320 -309 -128 -63 -221 -80 -396
-73 -113 5 -263 27 -277 40 -2 2 7 26 19 53 34 77 31 178 -10 272 -17 41 -43
83 -58 94 -20 16 -25 27 -20 48 4 22 0 30 -20 40 -18 10 -24 22 -24 46 0 22
-7 38 -20 47 -15 11 -19 21 -15 39 5 20 0 27 -29 43 -40 22 -40 23 -26 60 7
19 5 36 -6 66 -18 45 -24 43 -40 -9 -9 -27 -12 -31 -13 -14 -2 34 -35 28 -69
-13 -27 -33 -30 -34 -43 -19 -22 26 -15 141 16 289 24 117 30 133 59 160 18
17 50 63 71 103 21 40 49 82 63 92 31 25 83 26 113 1 l23 -18 -23 -64 c-13
-35 -47 -116 -76 -179 -29 -63 -60 -138 -69 -165 l-16 -50 55 -123 c30 -68 55
-129 55 -136 0 -6 4 -16 9 -21 14 -14 147 -323 160 -370 15 -56 14 -159 -3
-200 -8 -19 -11 -37 -7 -39 19 -12 189 -36 251 -36 269 0 567 166 665 371 42
88 44 102 11 93 -33 -8 -124 12 -172 38 -82 44 -133 100 -258 281 -199 290
-353 535 -473 755 -20 35 -45 81 -57 103 l-23 39 -12 -27 c-8 -18 -13 -65 -12
-127 1 -90 0 -98 -16 -91 -47 19 -88 23 -111 11 -14 -7 -53 -53 -87 -102 -34
-49 -68 -89 -76 -89 -19 0 -24 71 -9 138 18 84 75 188 125 231 32 26 56 61 85
120 22 45 40 88 40 94 0 18 9 15 50 -18z m-249 -263 c-10 -9 -11 -8 -5 6 3 10
9 15 12 12 3 -3 0 -11 -7 -18z m-119 -804 c17 -34 46 -28 69 12 12 19 25 35
30 35 13 0 27 -62 22 -96 -3 -17 0 -48 6 -69 8 -30 7 -44 -5 -67 -12 -23 -15
-55 -12 -136 l3 -107 -52 -2 c-29 -1 -61 -7 -72 -13 -29 -15 -29 -15 -46 43
-12 41 -13 64 -5 106 5 29 12 56 15 60 2 5 0 22 -5 40 -6 22 -5 44 5 72 8 22
18 70 21 107 4 37 9 60 11 52 3 -8 9 -25 15 -37z m-172 -703 c0 -19 -20 -27
-33 -13 -8 7 11 33 24 33 5 0 9 -9 9 -20z"/>
<path d="M5170 4469 c0 -37 29 -129 41 -129 6 0 8 8 5 17 -4 9 -11 37 -17 61
-13 60 -28 87 -29 51z"/>
<path d="M5250 4468 c0 -7 9 -24 20 -38 11 -14 20 -30 20 -36 0 -6 11 -21 25
-34 19 -18 25 -20 25 -8 0 9 -7 19 -16 22 -9 4 -14 9 -11 13 6 5 -51 93 -60
93 -2 0 -3 -6 -3 -12z"/>
<path d="M5250 4374 c0 -5 7 -19 15 -30 8 -10 15 -14 15 -8 0 5 -7 19 -15 30
-8 10 -15 14 -15 8z"/>
<path d="M5942 4284 c17 -56 66 -144 86 -153 23 -11 23 -10 -7 46 -29 53 -86
132 -79 107z"/>
<path d="M6056 4023 c32 -57 54 -90 54 -82 0 28 -35 111 -50 119 -32 17 -33
12 -4 -37z"/>
<path d="M6220 3976 c0 -3 9 -10 20 -16 11 -6 20 -8 20 -6 0 3 -9 10 -20 16
-11 6 -20 8 -20 6z"/>
<path d="M5643 3890 c-21 -9 -39 -42 -30 -57 8 -14 -12 -53 -26 -53 -11 0 -9
-11 9 -47 13 -25 24 -57 24 -69 0 -13 4 -25 9 -28 11 -7 75 65 98 108 14 27
14 33 -8 85 -29 71 -36 77 -76 61z"/>
<path d="M5491 3590 c-17 -22 -27 -40 -21 -40 6 0 8 -4 5 -10 -7 -12 5 -13 21
-2 9 6 37 92 30 92 -2 0 -17 -18 -35 -40z"/>
<path d="M4757 3528 l-62 -61 60 53 c33 29 64 57 70 62 5 4 5 8 1 8 -4 0 -36
-28 -69 -62z"/>
</g>
</svg>
